<?xml version="1.0" encoding="UTF-8" standalone="no"?><svg xmlns="http://www.w3.org/2000/svg" xmlns:xlink="http://www.w3.org/1999/xlink" contentStyleType="text/css" height="757px" preserveAspectRatio="none" style="width:4404px;height:757px;background:#FFFFFF;" version="1.1" viewBox="0 0 4404 757" width="4404px" zoomAndPan="magnify"><defs/><g><!--MD5=[aa2f05b2676d7d34ffa7e771fb7634f3]
cluster client--><g id="cluster_client"><path d="M3282.5,6 L3329.5,6 A3.75,3.75 0 0 1 3332,8.5 L3339,28.2969 L3843.5,28.2969 A2.5,2.5 0 0 1 3846,30.7969 L3846,395.5 A2.5,2.5 0 0 1 3843.5,398 L3282.5,398 A2.5,2.5 0 0 1 3280,395.5 L3280,8.5 A2.5,2.5 0 0 1 3282.5,6 " fill="none" style="stroke:#000000;stroke-width:1.5;"/><line style="stroke:#000000;stroke-width:1.5;" x1="3280" x2="3339" y1="28.2969" y2="28.2969"/><text fill="#000000" font-family="sans-serif" font-size="14" font-weight="bold" lengthAdjust="spacing" textLength="46" x="3284" y="20.9951">client</text></g><!--MD5=[a60570e4b426f702ccbb0d459e3b9417]
cluster models--><g id="cluster_models"><path d="M8.5,6 L67.5,6 A3.75,3.75 0 0 1 70,8.5 L77,28.2969 L1773.5,28.2969 A2.5,2.5 0 0 1 1776,30.7969 L1776,666 A2.5,2.5 0 0 1 1773.5,668.5 L8.5,668.5 A2.5,2.5 0 0 1 6,666 L6,8.5 A2.5,2.5 0 0 1 8.5,6 " fill="none" style="stroke:#000000;stroke-width:1.5;"/><line style="stroke:#000000;stroke-width:1.5;" x1="6" x2="77" y1="28.2969" y2="28.2969"/><text fill="#000000" font-family="sans-serif" font-size="14" font-weight="bold" lengthAdjust="spacing" textLength="58" x="10" y="20.9951">models</text></g><!--MD5=[59e9faf83e5ffb743ef5750f57e8e967]
cluster protocol--><g id="cluster_protocol"><path d="M3872.5,128 L3942.5,128 A3.75,3.75 0 0 1 3945,130.5 L3952,150.2969 L4394.5,150.2969 A2.5,2.5 0 0 1 4397,152.7969 L4397,666 A2.5,2.5 0 0 1 4394.5,668.5 L3872.5,668.5 A2.5,2.5 0 0 1 3870,666 L3870,130.5 A2.5,2.5 0 0 1 3872.5,128 " fill="none" style="stroke:#000000;stroke-width:1.5;"/><line style="stroke:#000000;stroke-width:1.5;" x1="3870" x2="3952" y1="150.2969" y2="150.2969"/><text fill="#000000" font-family="sans-serif" font-size="14" font-weight="bold" lengthAdjust="spacing" textLength="69" x="3874" y="142.9951">protocol</text></g><!--MD5=[4ef80439e1ef409f8f3a0ec422262701]
cluster server--><g id="cluster_server"><path d="M1802.5,63 L1853.5,63 A3.75,3.75 0 0 1 1856,65.5 L1863,85.2969 L3253.5,85.2969 A2.5,2.5 0 0 1 3256,87.7969 L3256,747.5 A2.5,2.5 0 0 1 3253.5,750 L1802.5,750 A2.5,2.5 0 0 1 1800,747.5 L1800,65.5 A2.5,2.5 0 0 1 1802.5,63 " fill="none" style="stroke:#000000;stroke-width:1.5;"/><line style="stroke:#000000;stroke-width:1.5;" x1="1800" x2="1863" y1="85.2969" y2="85.2969"/><text fill="#000000" font-family="sans-serif" font-size="14" font-weight="bold" lengthAdjust="spacing" textLength="50" x="1804" y="77.9951">server</text></g><!--MD5=[de2ad64a29956dddc845c47d1a2f5c11]
class client.Connection--><g id="elem_client.Connection"><rect codeLine="2" fill="#F1F1F1" height="341.3438" id="client.Connection" rx="2.5" ry="2.5" style="stroke:#181818;stroke-width:0.5;" width="534" x="3296" y="41"/><ellipse cx="3517.25" cy="57" fill="#7FFFD4" rx="11" ry="11" style="stroke:#181818;stroke-width:1.0;"/><path d="M3521.0313,52.9688 C3521.0313,52.5313 3521.0156,52.3906 3520.9219,52.2344 C3520.7813,52 3520.5,51.8438 3520.2031,51.8438 C3519.8594,51.8438 3519.7188,51.9844 3519.5469,52.4063 C3518.9531,52.0313 3518.2031,51.8438 3517.3281,51.8438 C3515.2188,51.8438 3513.6406,53.1406 3513.6406,54.8594 C3513.6406,55.8281 3514.1719,56.7344 3515.0313,57.2188 C3515.5781,57.5313 3516.125,57.7031 3517.2344,57.8906 C3518.3906,58.0938 3518.6563,58.1563 3519.0156,58.3438 C3519.3906,58.5469 3519.625,58.8906 3519.625,59.25 C3519.625,59.9844 3518.6406,60.5313 3517.3906,60.5313 C3516.2656,60.5313 3515.1875,60.0469 3515.0156,59.4375 C3514.8906,58.9688 3514.8906,58.9688 3514.7656,58.8594 C3514.6094,58.7031 3514.3906,58.6094 3514.1563,58.6094 C3513.875,58.6094 3513.625,58.7344 3513.4531,58.9531 C3513.3438,59.125 3513.2969,59.3125 3513.2969,59.7344 L3513.2969,60.8594 C3513.2969,61.625 3513.5781,61.9844 3514.1719,61.9844 C3514.4375,61.9844 3514.5625,61.9219 3514.8438,61.5781 C3515.6875,62.0156 3516.5781,62.2344 3517.5,62.2344 C3519.8281,62.2344 3521.3906,61.0469 3521.3906,59.2813 C3521.3906,58.3906 3521.0781,57.7031 3520.3906,57.1563 C3519.8594,56.7344 3519.2188,56.4844 3517.7344,56.2188 C3516.4688,55.9844 3516.375,55.9531 3516.0469,55.7813 C3515.6719,55.5938 3515.4063,55.2031 3515.4063,54.8438 C3515.4063,54.1094 3516.2656,53.5469 3517.3281,53.5469 C3518.3906,53.5469 3519.2031,54.0156 3519.3594,54.6875 C3519.4688,55.2344 3519.4688,55.2344 3519.5938,55.375 C3519.7344,55.5 3519.9688,55.6094 3520.2031,55.6094 C3520.4688,55.6094 3520.7188,55.4688 3520.8906,55.25 C3521,55.0781 3521.0313,54.9375 3521.0313,54.4688 L3521.0313,52.9688 Z " fill="#000000"/><text fill="#000000" font-family="sans-serif" font-size="14" lengthAdjust="spacing" textLength="83" x="3537.75" y="61.8467">Connection</text><line style="stroke:#181818;stroke-width:0.5;" x1="3297" x2="3829" y1="73" y2="73"/><rect fill="none" height="6" style="stroke:#C82930;stroke-width:1.0;" width="6" x="3304" y="83.6484"/><text fill="#000000" font-family="sans-serif" font-size="14" lengthAdjust="spacing" textLength="106" x="3316" y="89.9951">conn net.Conn</text><rect fill="none" height="6" style="stroke:#C82930;stroke-width:1.0;" width="6" x="3304" y="99.9453"/><text fill="#000000" font-family="sans-serif" font-size="14" lengthAdjust="spacing" textLength="162" x="3316" y="106.292">serverIn *bufio.Reader</text><rect fill="none" height="6" style="stroke:#C82930;stroke-width:1.0;" width="6" x="3304" y="116.2422"/><text fill="#000000" font-family="sans-serif" font-size="14" lengthAdjust="spacing" textLength="170" x="3316" y="122.5889">serverOut *bufio.Writer</text><rect fill="none" height="6" style="stroke:#C82930;stroke-width:1.0;" width="6" x="3304" y="132.5391"/><text fill="#000000" font-family="sans-serif" font-size="14" lengthAdjust="spacing" textLength="194" x="3316" y="138.8857">protocol protocol.Protocol</text><line style="stroke:#181818;stroke-width:0.5;" x1="3297" x2="3829" y1="146.1875" y2="146.1875"/><rect fill="#F24D5C" height="6" style="stroke:#C82930;stroke-width:1.0;" width="6" x="3304" y="156.8359"/><text fill="#000000" font-family="sans-serif" font-size="14" lengthAdjust="spacing" textLength="150" x="3316" y="163.1826">sendDebugRequest()</text><rect fill="#F24D5C" height="6" style="stroke:#C82930;stroke-width:1.0;" width="6" x="3304" y="173.1328"/><text fill="#000000" font-family="sans-serif" font-size="14" lengthAdjust="spacing" textLength="281" x="3316" y="179.4795">readFromServer() protocol.DataPacket</text><rect fill="#F24D5C" height="6" style="stroke:#C82930;stroke-width:1.0;" width="6" x="3304" y="189.4297"/><text fill="#000000" font-family="sans-serif" font-size="14" lengthAdjust="spacing" textLength="299" x="3316" y="195.7764">writeToServer(data protocol.DataPacket)</text><rect fill="#F24D5C" height="6" style="stroke:#C82930;stroke-width:1.0;" width="6" x="3304" y="205.7266"/><text fill="#000000" font-family="sans-serif" font-size="14" lengthAdjust="spacing" textLength="305" x="3316" y="212.0732">integerReader(optionalMessage string) int</text><text fill="#000000" font-family="sans-serif" font-size="14" lengthAdjust="spacing" textLength="4" x="3316" y="228.3701"> </text><ellipse cx="3307" cy="241.3203" fill="#84BE84" rx="3" ry="3" style="stroke:#038048;stroke-width:1.0;"/><text fill="#000000" font-family="sans-serif" font-size="14" lengthAdjust="spacing" textLength="365" x="3316" y="244.667">LoginClient(username string, password string) bool</text><ellipse cx="3307" cy="257.6172" fill="#84BE84" rx="3" ry="3" style="stroke:#038048;stroke-width:1.0;"/><text fill="#000000" font-family="sans-serif" font-size="14" lengthAdjust="spacing" textLength="242" x="3316" y="260.9639">CreateEvent(jobList []string) bool</text><ellipse cx="3307" cy="273.9141" fill="#84BE84" rx="3" ry="3" style="stroke:#038048;stroke-width:1.0;"/><text fill="#000000" font-family="sans-serif" font-size="14" lengthAdjust="spacing" textLength="130" x="3316" y="277.2607">PrintEvents() bool</text><ellipse cx="3307" cy="290.2109" fill="#84BE84" rx="3" ry="3" style="stroke:#038048;stroke-width:1.0;"/><text fill="#000000" font-family="sans-serif" font-size="14" lengthAdjust="spacing" textLength="353" x="3316" y="293.5576">VolunteerRegistration(eventId int, jobId int) bool</text><ellipse cx="3307" cy="306.5078" fill="#84BE84" rx="3" ry="3" style="stroke:#038048;stroke-width:1.0;"/><text fill="#000000" font-family="sans-serif" font-size="14" lengthAdjust="spacing" textLength="181" x="3316" y="309.8545">ListJobs(eventId int) bool</text><ellipse cx="3307" cy="322.8047" fill="#84BE84" rx="3" ry="3" style="stroke:#038048;stroke-width:1.0;"/><text fill="#000000" font-family="sans-serif" font-size="14" lengthAdjust="spacing" textLength="243" x="3316" y="326.1514">VolunteerRepartition(eventId int)</text><ellipse cx="3307" cy="339.1016" fill="#84BE84" rx="3" ry="3" style="stroke:#038048;stroke-width:1.0;"/><text fill="#000000" font-family="sans-serif" font-size="14" lengthAdjust="spacing" textLength="170" x="3316" y="342.4482">CloseEvent(eventId int)</text><ellipse cx="3307" cy="355.3984" fill="#84BE84" rx="3" ry="3" style="stroke:#038048;stroke-width:1.0;"/><text fill="#000000" font-family="sans-serif" font-size="14" lengthAdjust="spacing" textLength="508" x="3316" y="358.7451">ServerRequest(data protocol.DataPacket) (bool, protocol.DataPacket)</text><ellipse cx="3307" cy="371.6953" fill="#84BE84" rx="3" ry="3" style="stroke:#038048;stroke-width:1.0;"/><text fill="#000000" font-family="sans-serif" font-size="14" lengthAdjust="spacing" textLength="49" x="3316" y="375.042">Close()</text></g><!--MD5=[56915fcc32a00f2e3a0cb4c451119580]
class models.Database--><g id="elem_models.Database"><rect codeLine="28" fill="#F1F1F1" height="243.5625" id="models.Database" rx="2.5" ry="2.5" style="stroke:#181818;stroke-width:0.5;" width="570" x="378" y="89.5"/><ellipse cx="624.75" cy="105.5" fill="#7FFFD4" rx="11" ry="11" style="stroke:#181818;stroke-width:1.0;"/><path d="M628.5313,101.4688 C628.5313,101.0313 628.5156,100.8906 628.4219,100.7344 C628.2813,100.5 628,100.3438 627.7031,100.3438 C627.3594,100.3438 627.2188,100.4844 627.0469,100.9063 C626.4531,100.5313 625.7031,100.3438 624.8281,100.3438 C622.7188,100.3438 621.1406,101.6406 621.1406,103.3594 C621.1406,104.3281 621.6719,105.2344 622.5313,105.7188 C623.0781,106.0313 623.625,106.2031 624.7344,106.3906 C625.8906,106.5938 626.1563,106.6563 626.5156,106.8438 C626.8906,107.0469 627.125,107.3906 627.125,107.75 C627.125,108.4844 626.1406,109.0313 624.8906,109.0313 C623.7656,109.0313 622.6875,108.5469 622.5156,107.9375 C622.3906,107.4688 622.3906,107.4688 622.2656,107.3594 C622.1094,107.2031 621.8906,107.1094 621.6563,107.1094 C621.375,107.1094 621.125,107.2344 620.9531,107.4531 C620.8438,107.625 620.7969,107.8125 620.7969,108.2344 L620.7969,109.3594 C620.7969,110.125 621.0781,110.4844 621.6719,110.4844 C621.9375,110.4844 622.0625,110.4219 622.3438,110.0781 C623.1875,110.5156 624.0781,110.7344 625,110.7344 C627.3281,110.7344 628.8906,109.5469 628.8906,107.7813 C628.8906,106.8906 628.5781,106.2031 627.8906,105.6563 C627.3594,105.2344 626.7188,104.9844 625.2344,104.7188 C623.9688,104.4844 623.875,104.4531 623.5469,104.2813 C623.1719,104.0938 622.9063,103.7031 622.9063,103.3438 C622.9063,102.6094 623.7656,102.0469 624.8281,102.0469 C625.8906,102.0469 626.7031,102.5156 626.8594,103.1875 C626.9688,103.7344 626.9688,103.7344 627.0938,103.875 C627.2344,104 627.4688,104.1094 627.7031,104.1094 C627.9688,104.1094 628.2188,103.9688 628.3906,103.75 C628.5,103.5781 628.5313,103.4375 628.5313,102.9688 L628.5313,101.4688 Z " fill="#000000"/><text fill="#000000" font-family="sans-serif" font-size="14" lengthAdjust="spacing" textLength="68" x="645.25" y="110.3467">Database</text><line style="stroke:#181818;stroke-width:0.5;" x1="379" x2="947" y1="121.5" y2="121.5"/><ellipse cx="389" cy="135.1484" fill="none" rx="3" ry="3" style="stroke:#038048;stroke-width:1.0;"/><text fill="#000000" font-family="sans-serif" font-size="14" lengthAdjust="spacing" textLength="49" x="398" y="138.4951">Events</text><text fill="#0000FF" font-family="sans-serif" font-size="14" lengthAdjust="spacing" textLength="32" x="451" y="138.4951">map</text><text fill="#000000" font-family="sans-serif" font-size="14" lengthAdjust="spacing" textLength="87" x="483" y="138.4951">[uint]*event</text><ellipse cx="389" cy="151.4453" fill="none" rx="3" ry="3" style="stroke:#038048;stroke-width:1.0;"/><text fill="#000000" font-family="sans-serif" font-size="14" lengthAdjust="spacing" textLength="38" x="398" y="154.792">Users</text><text fill="#0000FF" font-family="sans-serif" font-size="14" lengthAdjust="spacing" textLength="32" x="440" y="154.792">map</text><text fill="#000000" font-family="sans-serif" font-size="14" lengthAdjust="spacing" textLength="89" x="472" y="154.792">[string]*user</text><line style="stroke:#181818;stroke-width:0.5;" x1="379" x2="947" y1="162.0938" y2="162.0938"/><ellipse cx="389" cy="175.7422" fill="#84BE84" rx="3" ry="3" style="stroke:#038048;stroke-width:1.0;"/><text fill="#000000" font-family="sans-serif" font-size="14" lengthAdjust="spacing" textLength="331" x="398" y="179.0889">GetEventByName(name string) (*event, error)</text><ellipse cx="389" cy="192.0391" fill="#84BE84" rx="3" ry="3" style="stroke:#038048;stroke-width:1.0;"/><text fill="#000000" font-family="sans-serif" font-size="14" lengthAdjust="spacing" textLength="231" x="398" y="195.3857">GetEvent(id uint) (*event, error)</text><ellipse cx="389" cy="208.3359" fill="#84BE84" rx="3" ry="3" style="stroke:#038048;stroke-width:1.0;"/><text fill="#000000" font-family="sans-serif" font-size="14" lengthAdjust="spacing" textLength="241" x="398" y="211.6826">GetEventsAsStringArray() []string</text><ellipse cx="389" cy="224.6328" fill="#84BE84" rx="3" ry="3" style="stroke:#038048;stroke-width:1.0;"/><text fill="#000000" font-family="sans-serif" font-size="14" lengthAdjust="spacing" textLength="442" x="398" y="227.9795">CreateEvent(name string, organizer string) (*Database, error)</text><ellipse cx="389" cy="240.9297" fill="#84BE84" rx="3" ry="3" style="stroke:#038048;stroke-width:1.0;"/><text fill="#000000" font-family="sans-serif" font-size="14" lengthAdjust="spacing" textLength="544" x="398" y="244.2764">CreateUser(name string, password string, function string) (*Database, error)</text><ellipse cx="389" cy="257.2266" fill="#84BE84" rx="3" ry="3" style="stroke:#038048;stroke-width:1.0;"/><text fill="#000000" font-family="sans-serif" font-size="14" lengthAdjust="spacing" textLength="249" x="398" y="260.5732">GetUser(name string) (*user, error)</text><ellipse cx="389" cy="273.5234" fill="#84BE84" rx="3" ry="3" style="stroke:#038048;stroke-width:1.0;"/><text fill="#000000" font-family="sans-serif" font-size="14" lengthAdjust="spacing" textLength="346" x="398" y="276.8701">Login(name string, password string) (bool, error)</text><ellipse cx="389" cy="289.8203" fill="#84BE84" rx="3" ry="3" style="stroke:#038048;stroke-width:1.0;"/><text fill="#000000" font-family="sans-serif" font-size="14" lengthAdjust="spacing" textLength="173" x="398" y="293.167">GetEventArray() []event</text><ellipse cx="389" cy="306.1172" fill="#84BE84" rx="3" ry="3" style="stroke:#038048;stroke-width:1.0;"/><text fill="#000000" font-family="sans-serif" font-size="14" lengthAdjust="spacing" textLength="103" x="398" y="309.4639">ToJson() string</text><ellipse cx="389" cy="322.4141" fill="#84BE84" rx="3" ry="3" style="stroke:#038048;stroke-width:1.0;"/><text fill="#000000" font-family="sans-serif" font-size="14" lengthAdjust="spacing" textLength="144" x="398" y="325.7607">EventAsJson() string</text></g><!--MD5=[ec2370b16b6012bf78e04f463c78df28]
class models.event--><g id="elem_models.event"><rect codeLine="44" fill="#F1F1F1" height="341.3438" id="models.event" rx="2.5" ry="2.5" style="stroke:#181818;stroke-width:0.5;" width="401" x="983.5" y="41"/><ellipse cx="1158.75" cy="57" fill="#7FFFD4" rx="11" ry="11" style="stroke:#181818;stroke-width:1.0;"/><path d="M1162.5313,52.9688 C1162.5313,52.5313 1162.5156,52.3906 1162.4219,52.2344 C1162.2813,52 1162,51.8438 1161.7031,51.8438 C1161.3594,51.8438 1161.2188,51.9844 1161.0469,52.4063 C1160.4531,52.0313 1159.7031,51.8438 1158.8281,51.8438 C1156.7188,51.8438 1155.1406,53.1406 1155.1406,54.8594 C1155.1406,55.8281 1155.6719,56.7344 1156.5313,57.2188 C1157.0781,57.5313 1157.625,57.7031 1158.7344,57.8906 C1159.8906,58.0938 1160.1563,58.1563 1160.5156,58.3438 C1160.8906,58.5469 1161.125,58.8906 1161.125,59.25 C1161.125,59.9844 1160.1406,60.5313 1158.8906,60.5313 C1157.7656,60.5313 1156.6875,60.0469 1156.5156,59.4375 C1156.3906,58.9688 1156.3906,58.9688 1156.2656,58.8594 C1156.1094,58.7031 1155.8906,58.6094 1155.6563,58.6094 C1155.375,58.6094 1155.125,58.7344 1154.9531,58.9531 C1154.8438,59.125 1154.7969,59.3125 1154.7969,59.7344 L1154.7969,60.8594 C1154.7969,61.625 1155.0781,61.9844 1155.6719,61.9844 C1155.9375,61.9844 1156.0625,61.9219 1156.3438,61.5781 C1157.1875,62.0156 1158.0781,62.2344 1159,62.2344 C1161.3281,62.2344 1162.8906,61.0469 1162.8906,59.2813 C1162.8906,58.3906 1162.5781,57.7031 1161.8906,57.1563 C1161.3594,56.7344 1160.7188,56.4844 1159.2344,56.2188 C1157.9688,55.9844 1157.875,55.9531 1157.5469,55.7813 C1157.1719,55.5938 1156.9063,55.2031 1156.9063,54.8438 C1156.9063,54.1094 1157.7656,53.5469 1158.8281,53.5469 C1159.8906,53.5469 1160.7031,54.0156 1160.8594,54.6875 C1160.9688,55.2344 1160.9688,55.2344 1161.0938,55.375 C1161.2344,55.5 1161.4688,55.6094 1161.7031,55.6094 C1161.9688,55.6094 1162.2188,55.4688 1162.3906,55.25 C1162.5,55.0781 1162.5313,54.9375 1162.5313,54.4688 L1162.5313,52.9688 Z " fill="#000000"/><text fill="#000000" font-family="sans-serif" font-size="14" lengthAdjust="spacing" textLength="42" x="1179.25" y="61.8467">event</text><line style="stroke:#181818;stroke-width:0.5;" x1="984.5" x2="1383.5" y1="73" y2="73"/><ellipse cx="994.5" cy="86.6484" fill="none" rx="3" ry="3" style="stroke:#038048;stroke-width:1.0;"/><text fill="#000000" font-family="sans-serif" font-size="14" lengthAdjust="spacing" textLength="47" x="1003.5" y="89.9951">ID uint</text><ellipse cx="994.5" cy="102.9453" fill="none" rx="3" ry="3" style="stroke:#038048;stroke-width:1.0;"/><text fill="#000000" font-family="sans-serif" font-size="14" lengthAdjust="spacing" textLength="87" x="1003.5" y="106.292">Name string</text><ellipse cx="994.5" cy="119.2422" fill="none" rx="3" ry="3" style="stroke:#038048;stroke-width:1.0;"/><text fill="#000000" font-family="sans-serif" font-size="14" lengthAdjust="spacing" textLength="116" x="1003.5" y="122.5889">Organizer string</text><ellipse cx="994.5" cy="135.5391" fill="none" rx="3" ry="3" style="stroke:#038048;stroke-width:1.0;"/><text fill="#000000" font-family="sans-serif" font-size="14" lengthAdjust="spacing" textLength="30" x="1003.5" y="138.8857">Jobs</text><text fill="#0000FF" font-family="sans-serif" font-size="14" lengthAdjust="spacing" textLength="32" x="1037.5" y="138.8857">map</text><text fill="#000000" font-family="sans-serif" font-size="14" lengthAdjust="spacing" textLength="68" x="1069.5" y="138.8857">[uint]*job</text><ellipse cx="994.5" cy="151.8359" fill="none" rx="3" ry="3" style="stroke:#038048;stroke-width:1.0;"/><text fill="#000000" font-family="sans-serif" font-size="14" lengthAdjust="spacing" textLength="86" x="1003.5" y="155.1826">IsOpen bool</text><line style="stroke:#181818;stroke-width:0.5;" x1="984.5" x2="1383.5" y1="162.4844" y2="162.4844"/><rect fill="#F24D5C" height="6" style="stroke:#C82930;stroke-width:1.0;" width="6" x="991.5" y="173.1328"/><text fill="#000000" font-family="sans-serif" font-size="14" lengthAdjust="spacing" textLength="323" x="1003.5" y="179.4795">isRegisterToJob(name string, jobID uint) bool</text><rect fill="#F24D5C" height="6" style="stroke:#C82930;stroke-width:1.0;" width="6" x="991.5" y="189.4297"/><text fill="#000000" font-family="sans-serif" font-size="14" lengthAdjust="spacing" textLength="187" x="1003.5" y="195.7764">getAllVolunteers() []string</text><text fill="#000000" font-family="sans-serif" font-size="14" lengthAdjust="spacing" textLength="4" x="1003.5" y="212.0732"> </text><ellipse cx="994.5" cy="225.0234" fill="#84BE84" rx="3" ry="3" style="stroke:#038048;stroke-width:1.0;"/><text fill="#000000" font-family="sans-serif" font-size="14" lengthAdjust="spacing" textLength="375" x="1003.5" y="228.3701">CreateJob(name string, required uint) (*event, error)</text><ellipse cx="994.5" cy="241.3203" fill="#84BE84" rx="3" ry="3" style="stroke:#038048;stroke-width:1.0;"/><text fill="#000000" font-family="sans-serif" font-size="14" lengthAdjust="spacing" textLength="193" x="1003.5" y="244.667">GetJob(id uint) (*job, error)</text><ellipse cx="994.5" cy="257.6172" fill="#84BE84" rx="3" ry="3" style="stroke:#038048;stroke-width:1.0;"/><text fill="#000000" font-family="sans-serif" font-size="14" lengthAdjust="spacing" textLength="293" x="1003.5" y="260.9639">GetJobByName(name string) (*job, error)</text><ellipse cx="994.5" cy="273.9141" fill="#84BE84" rx="3" ry="3" style="stroke:#038048;stroke-width:1.0;"/><text fill="#000000" font-family="sans-serif" font-size="14" lengthAdjust="spacing" textLength="118" x="1003.5" y="277.2607">ToString() string</text><ellipse cx="994.5" cy="290.2109" fill="#84BE84" rx="3" ry="3" style="stroke:#038048;stroke-width:1.0;"/><text fill="#000000" font-family="sans-serif" font-size="14" lengthAdjust="spacing" textLength="222" x="1003.5" y="293.5576">GetJobsAsStringArray() []string</text><ellipse cx="994.5" cy="306.5078" fill="#84BE84" rx="3" ry="3" style="stroke:#038048;stroke-width:1.0;"/><text fill="#000000" font-family="sans-serif" font-size="14" lengthAdjust="spacing" textLength="132" x="1003.5" y="309.8545">JobsAsJson() string</text><ellipse cx="994.5" cy="322.8047" fill="#84BE84" rx="3" ry="3" style="stroke:#038048;stroke-width:1.0;"/><text fill="#000000" font-family="sans-serif" font-size="14" lengthAdjust="spacing" textLength="359" x="1003.5" y="326.1514">AddVolunteer(jobId uint, name string) (*job, error)</text><ellipse cx="994.5" cy="339.1016" fill="#84BE84" rx="3" ry="3" style="stroke:#038048;stroke-width:1.0;"/><text fill="#000000" font-family="sans-serif" font-size="14" lengthAdjust="spacing" textLength="266" x="1003.5" y="342.4482">RemoveVolunteer(name string) error</text><ellipse cx="994.5" cy="355.3984" fill="#84BE84" rx="3" ry="3" style="stroke:#038048;stroke-width:1.0;"/><text fill="#000000" font-family="sans-serif" font-size="14" lengthAdjust="spacing" textLength="49" x="1003.5" y="358.7451">Close()</text><ellipse cx="994.5" cy="371.6953" fill="#84BE84" rx="3" ry="3" style="stroke:#038048;stroke-width:1.0;"/><text fill="#000000" font-family="sans-serif" font-size="14" lengthAdjust="spacing" textLength="103" x="1003.5" y="375.042">ToJson() string</text></g><!--MD5=[2993afd3bda2750f74ecfa9acd46aab6]
class models.job--><g id="elem_models.job"><rect codeLine="66" fill="#F1F1F1" height="178.375" id="models.job" rx="2.5" ry="2.5" style="stroke:#181818;stroke-width:0.5;" width="340" x="1420" y="122.5"/><ellipse cx="1574.25" cy="138.5" fill="#7FFFD4" rx="11" ry="11" style="stroke:#181818;stroke-width:1.0;"/><path d="M1578.0313,134.4688 C1578.0313,134.0313 1578.0156,133.8906 1577.9219,133.7344 C1577.7813,133.5 1577.5,133.3438 1577.2031,133.3438 C1576.8594,133.3438 1576.7188,133.4844 1576.5469,133.9063 C1575.9531,133.5313 1575.2031,133.3438 1574.3281,133.3438 C1572.2188,133.3438 1570.6406,134.6406 1570.6406,136.3594 C1570.6406,137.3281 1571.1719,138.2344 1572.0313,138.7188 C1572.5781,139.0313 1573.125,139.2031 1574.2344,139.3906 C1575.3906,139.5938 1575.6563,139.6563 1576.0156,139.8438 C1576.3906,140.0469 1576.625,140.3906 1576.625,140.75 C1576.625,141.4844 1575.6406,142.0313 1574.3906,142.0313 C1573.2656,142.0313 1572.1875,141.5469 1572.0156,140.9375 C1571.8906,140.4688 1571.8906,140.4688 1571.7656,140.3594 C1571.6094,140.2031 1571.3906,140.1094 1571.1563,140.1094 C1570.875,140.1094 1570.625,140.2344 1570.4531,140.4531 C1570.3438,140.625 1570.2969,140.8125 1570.2969,141.2344 L1570.2969,142.3594 C1570.2969,143.125 1570.5781,143.4844 1571.1719,143.4844 C1571.4375,143.4844 1571.5625,143.4219 1571.8438,143.0781 C1572.6875,143.5156 1573.5781,143.7344 1574.5,143.7344 C1576.8281,143.7344 1578.3906,142.5469 1578.3906,140.7813 C1578.3906,139.8906 1578.0781,139.2031 1577.3906,138.6563 C1576.8594,138.2344 1576.2188,137.9844 1574.7344,137.7188 C1573.4688,137.4844 1573.375,137.4531 1573.0469,137.2813 C1572.6719,137.0938 1572.4063,136.7031 1572.4063,136.3438 C1572.4063,135.6094 1573.2656,135.0469 1574.3281,135.0469 C1575.3906,135.0469 1576.2031,135.5156 1576.3594,136.1875 C1576.4688,136.7344 1576.4688,136.7344 1576.5938,136.875 C1576.7344,137 1576.9688,137.1094 1577.2031,137.1094 C1577.4688,137.1094 1577.7188,136.9688 1577.8906,136.75 C1578,136.5781 1578.0313,136.4375 1578.0313,135.9688 L1578.0313,134.4688 Z " fill="#000000"/><text fill="#000000" font-family="sans-serif" font-size="14" lengthAdjust="spacing" textLength="23" x="1594.75" y="143.3467">job</text><line style="stroke:#181818;stroke-width:0.5;" x1="1421" x2="1759" y1="154.5" y2="154.5"/><ellipse cx="1431" cy="168.1484" fill="none" rx="3" ry="3" style="stroke:#038048;stroke-width:1.0;"/><text fill="#000000" font-family="sans-serif" font-size="14" lengthAdjust="spacing" textLength="47" x="1440" y="171.4951">ID uint</text><ellipse cx="1431" cy="184.4453" fill="none" rx="3" ry="3" style="stroke:#038048;stroke-width:1.0;"/><text fill="#000000" font-family="sans-serif" font-size="14" lengthAdjust="spacing" textLength="87" x="1440" y="187.792">Name string</text><ellipse cx="1431" cy="200.7422" fill="none" rx="3" ry="3" style="stroke:#038048;stroke-width:1.0;"/><text fill="#000000" font-family="sans-serif" font-size="14" lengthAdjust="spacing" textLength="96" x="1440" y="204.0889">Required uint</text><ellipse cx="1431" cy="217.0391" fill="none" rx="3" ry="3" style="stroke:#038048;stroke-width:1.0;"/><text fill="#000000" font-family="sans-serif" font-size="14" lengthAdjust="spacing" textLength="134" x="1440" y="220.3857">Volunteers []string</text><line style="stroke:#181818;stroke-width:0.5;" x1="1421" x2="1759" y1="227.6875" y2="227.6875"/><ellipse cx="1431" cy="241.3359" fill="#84BE84" rx="3" ry="3" style="stroke:#038048;stroke-width:1.0;"/><text fill="#000000" font-family="sans-serif" font-size="14" lengthAdjust="spacing" textLength="294" x="1440" y="244.6826">GetVolunteer(name string) (string, error)</text><ellipse cx="1431" cy="257.6328" fill="#84BE84" rx="3" ry="3" style="stroke:#038048;stroke-width:1.0;"/><text fill="#000000" font-family="sans-serif" font-size="14" lengthAdjust="spacing" textLength="314" x="1440" y="260.9795">RemoveVolunteer(name string) (*job, error)</text><ellipse cx="1431" cy="273.9297" fill="#84BE84" rx="3" ry="3" style="stroke:#038048;stroke-width:1.0;"/><text fill="#000000" font-family="sans-serif" font-size="14" lengthAdjust="spacing" textLength="118" x="1440" y="277.2764">ToString() string</text><ellipse cx="1431" cy="290.2266" fill="#84BE84" rx="3" ry="3" style="stroke:#038048;stroke-width:1.0;"/><text fill="#000000" font-family="sans-serif" font-size="14" lengthAdjust="spacing" textLength="103" x="1440" y="293.5732">ToJson() string</text></g><!--MD5=[43dac1b82aabe849604d0caec9d807fe]
class models.jobs--><g id="elem_models.jobs"><rect codeLine="99" fill="#F1F1F1" height="64.2969" id="models.jobs" rx="2.5" ry="2.5" style="stroke:#181818;stroke-width:0.5;" width="188" x="507" y="556"/><ellipse cx="581.75" cy="572" fill="#FF7700" rx="11" ry="11" style="stroke:#181818;stroke-width:1.0;"/><path d="M582.1875,569.5313 L584.0313,569.5313 L584.0313,571.125 C584.0313,571.5156 584.0625,571.6875 584.1563,571.8281 C584.3125,572.0781 584.5938,572.2344 584.8906,572.2344 C585.1563,572.2344 585.4063,572.1094 585.5781,571.8906 C585.7188,571.7188 585.7344,571.5938 585.7344,571.125 L585.7344,567.8438 L576.9688,567.8438 L576.9688,571.125 C576.9688,571.5156 577,571.6875 577.0781,571.8281 C577.2344,572.0938 577.5313,572.2344 577.8125,572.2344 C578.0938,572.2344 578.3438,572.1094 578.5156,571.8906 C578.625,571.7188 578.6563,571.5781 578.6563,571.125 L578.6563,569.5313 L580.4844,569.5313 L580.4844,576.0469 L579.375,576.0469 C578.9375,576.0469 578.8125,576.0625 578.6563,576.1719 C578.4063,576.3281 578.25,576.6094 578.25,576.9063 C578.25,577.1563 578.3906,577.4219 578.6094,577.5781 C578.7656,577.7031 578.9844,577.75 579.375,577.75 L583.3125,577.75 C583.6406,577.75 583.9063,577.7031 584.0156,577.625 C584.2813,577.4844 584.4219,577.1875 584.4219,576.9063 C584.4219,576.625 584.2969,576.375 584.0625,576.2031 C583.9063,576.0781 583.7656,576.0469 583.3125,576.0469 L582.1875,576.0469 L582.1875,569.5313 Z " fill="#000000"/><text fill="#000000" font-family="sans-serif" font-size="14" lengthAdjust="spacing" textLength="30" x="602.25" y="576.8467">jobs</text><line style="stroke:#181818;stroke-width:0.5;" x1="508" x2="694" y1="588" y2="588"/><line style="stroke:#181818;stroke-width:0.5;" x1="508" x2="694" y1="596" y2="596"/><ellipse cx="518" cy="609.6484" fill="#84BE84" rx="3" ry="3" style="stroke:#038048;stroke-width:1.0;"/><text fill="#000000" font-family="sans-serif" font-size="14" lengthAdjust="spacing" textLength="58" x="527" y="612.9951">ToMap()</text><text fill="#0000FF" font-family="sans-serif" font-size="14" lengthAdjust="spacing" textLength="32" x="589" y="612.9951">map</text><text fill="#000000" font-family="sans-serif" font-size="14" lengthAdjust="spacing" textLength="68" x="621" y="612.9951">[uint]*job</text></g><!--MD5=[78f94b835bce62b29e7c998299613a29]
class models.jsonDatabase--><g id="elem_models.jsonDatabase"><rect codeLine="82" fill="#F1F1F1" height="80.5938" id="models.jsonDatabase" rx="2.5" ry="2.5" style="stroke:#181818;stroke-width:0.5;" width="157" x="730.5" y="547.5"/><ellipse cx="758.1" cy="563.5" fill="#7FFFD4" rx="11" ry="11" style="stroke:#181818;stroke-width:1.0;"/><path d="M761.8813,559.4688 C761.8813,559.0313 761.8656,558.8906 761.7719,558.7344 C761.6313,558.5 761.35,558.3438 761.0531,558.3438 C760.7094,558.3438 760.5688,558.4844 760.3969,558.9063 C759.8031,558.5313 759.0531,558.3438 758.1781,558.3438 C756.0688,558.3438 754.4906,559.6406 754.4906,561.3594 C754.4906,562.3281 755.0219,563.2344 755.8813,563.7188 C756.4281,564.0313 756.975,564.2031 758.0844,564.3906 C759.2406,564.5938 759.5063,564.6563 759.8656,564.8438 C760.2406,565.0469 760.475,565.3906 760.475,565.75 C760.475,566.4844 759.4906,567.0313 758.2406,567.0313 C757.1156,567.0313 756.0375,566.5469 755.8656,565.9375 C755.7406,565.4688 755.7406,565.4688 755.6156,565.3594 C755.4594,565.2031 755.2406,565.1094 755.0063,565.1094 C754.725,565.1094 754.475,565.2344 754.3031,565.4531 C754.1938,565.625 754.1469,565.8125 754.1469,566.2344 L754.1469,567.3594 C754.1469,568.125 754.4281,568.4844 755.0219,568.4844 C755.2875,568.4844 755.4125,568.4219 755.6938,568.0781 C756.5375,568.5156 757.4281,568.7344 758.35,568.7344 C760.6781,568.7344 762.2406,567.5469 762.2406,565.7813 C762.2406,564.8906 761.9281,564.2031 761.2406,563.6563 C760.7094,563.2344 760.0688,562.9844 758.5844,562.7188 C757.3188,562.4844 757.225,562.4531 756.8969,562.2813 C756.5219,562.0938 756.2563,561.7031 756.2563,561.3438 C756.2563,560.6094 757.1156,560.0469 758.1781,560.0469 C759.2406,560.0469 760.0531,560.5156 760.2094,561.1875 C760.3188,561.7344 760.3188,561.7344 760.4438,561.875 C760.5844,562 760.8188,562.1094 761.0531,562.1094 C761.3188,562.1094 761.5688,561.9688 761.7406,561.75 C761.85,561.5781 761.8813,561.4375 761.8813,560.9688 L761.8813,559.4688 Z " fill="#000000"/><text fill="#000000" font-family="sans-serif" font-size="14" lengthAdjust="spacing" textLength="97" x="774.9" y="568.3467">jsonDatabase</text><line style="stroke:#181818;stroke-width:0.5;" x1="731.5" x2="886.5" y1="579.5" y2="579.5"/><ellipse cx="741.5" cy="593.1484" fill="none" rx="3" ry="3" style="stroke:#038048;stroke-width:1.0;"/><text fill="#000000" font-family="sans-serif" font-size="14" lengthAdjust="spacing" textLength="131" x="750.5" y="596.4951">Events jsonEvents</text><ellipse cx="741.5" cy="609.4453" fill="none" rx="3" ry="3" style="stroke:#038048;stroke-width:1.0;"/><text fill="#000000" font-family="sans-serif" font-size="14" lengthAdjust="spacing" textLength="79" x="750.5" y="612.792">Users users</text><line style="stroke:#181818;stroke-width:0.5;" x1="731.5" x2="886.5" y1="620.0938" y2="620.0938"/></g><!--MD5=[2d3a150ff3aadf73c8881d379cdb16b5]
class models.jsonEvent--><g id="elem_models.jsonEvent"><rect codeLine="87" fill="#F1F1F1" height="129.4844" id="models.jsonEvent" rx="2.5" ry="2.5" style="stroke:#181818;stroke-width:0.5;" width="142" x="923" y="523.5"/><ellipse cx="955.55" cy="539.5" fill="#7FFFD4" rx="11" ry="11" style="stroke:#181818;stroke-width:1.0;"/><path d="M959.3313,535.4688 C959.3313,535.0313 959.3156,534.8906 959.2219,534.7344 C959.0813,534.5 958.8,534.3438 958.5031,534.3438 C958.1594,534.3438 958.0188,534.4844 957.8469,534.9063 C957.2531,534.5313 956.5031,534.3438 955.6281,534.3438 C953.5188,534.3438 951.9406,535.6406 951.9406,537.3594 C951.9406,538.3281 952.4719,539.2344 953.3313,539.7188 C953.8781,540.0313 954.425,540.2031 955.5344,540.3906 C956.6906,540.5938 956.9563,540.6563 957.3156,540.8438 C957.6906,541.0469 957.925,541.3906 957.925,541.75 C957.925,542.4844 956.9406,543.0313 955.6906,543.0313 C954.5656,543.0313 953.4875,542.5469 953.3156,541.9375 C953.1906,541.4688 953.1906,541.4688 953.0656,541.3594 C952.9094,541.2031 952.6906,541.1094 952.4563,541.1094 C952.175,541.1094 951.925,541.2344 951.7531,541.4531 C951.6438,541.625 951.5969,541.8125 951.5969,542.2344 L951.5969,543.3594 C951.5969,544.125 951.8781,544.4844 952.4719,544.4844 C952.7375,544.4844 952.8625,544.4219 953.1438,544.0781 C953.9875,544.5156 954.8781,544.7344 955.8,544.7344 C958.1281,544.7344 959.6906,543.5469 959.6906,541.7813 C959.6906,540.8906 959.3781,540.2031 958.6906,539.6563 C958.1594,539.2344 957.5188,538.9844 956.0344,538.7188 C954.7688,538.4844 954.675,538.4531 954.3469,538.2813 C953.9719,538.0938 953.7063,537.7031 953.7063,537.3438 C953.7063,536.6094 954.5656,536.0469 955.6281,536.0469 C956.6906,536.0469 957.5031,536.5156 957.6594,537.1875 C957.7688,537.7344 957.7688,537.7344 957.8938,537.875 C958.0344,538 958.2688,538.1094 958.5031,538.1094 C958.7688,538.1094 959.0188,537.9688 959.1906,537.75 C959.3,537.5781 959.3313,537.4375 959.3313,536.9688 L959.3313,535.4688 Z " fill="#000000"/><text fill="#000000" font-family="sans-serif" font-size="14" lengthAdjust="spacing" textLength="71" x="973.45" y="544.3467">jsonEvent</text><line style="stroke:#181818;stroke-width:0.5;" x1="924" x2="1064" y1="555.5" y2="555.5"/><ellipse cx="934" cy="569.1484" fill="none" rx="3" ry="3" style="stroke:#038048;stroke-width:1.0;"/><text fill="#000000" font-family="sans-serif" font-size="14" lengthAdjust="spacing" textLength="47" x="943" y="572.4951">ID uint</text><ellipse cx="934" cy="585.4453" fill="none" rx="3" ry="3" style="stroke:#038048;stroke-width:1.0;"/><text fill="#000000" font-family="sans-serif" font-size="14" lengthAdjust="spacing" textLength="87" x="943" y="588.792">Name string</text><ellipse cx="934" cy="601.7422" fill="none" rx="3" ry="3" style="stroke:#038048;stroke-width:1.0;"/><text fill="#000000" font-family="sans-serif" font-size="14" lengthAdjust="spacing" textLength="116" x="943" y="605.0889">Organizer string</text><ellipse cx="934" cy="618.0391" fill="none" rx="3" ry="3" style="stroke:#038048;stroke-width:1.0;"/><text fill="#000000" font-family="sans-serif" font-size="14" lengthAdjust="spacing" textLength="64" x="943" y="621.3857">Jobs jobs</text><ellipse cx="934" cy="634.3359" fill="none" rx="3" ry="3" style="stroke:#038048;stroke-width:1.0;"/><text fill="#000000" font-family="sans-serif" font-size="14" lengthAdjust="spacing" textLength="86" x="943" y="637.6826">IsOpen bool</text><line style="stroke:#181818;stroke-width:0.5;" x1="924" x2="1064" y1="644.9844" y2="644.9844"/></g><!--MD5=[b6c4800043d3b5b2c979aceec2f78950]
class models.jsonEvents--><g id="elem_models.jsonEvents"><rect codeLine="101" fill="#F1F1F1" height="64.2969" id="models.jsonEvents" rx="2.5" ry="2.5" style="stroke:#181818;stroke-width:0.5;" width="205" x="266.5" y="556"/><ellipse cx="325.75" cy="572" fill="#FF7700" rx="11" ry="11" style="stroke:#181818;stroke-width:1.0;"/><path d="M326.1875,569.5313 L328.0313,569.5313 L328.0313,571.125 C328.0313,571.5156 328.0625,571.6875 328.1563,571.8281 C328.3125,572.0781 328.5938,572.2344 328.8906,572.2344 C329.1563,572.2344 329.4063,572.1094 329.5781,571.8906 C329.7188,571.7188 329.7344,571.5938 329.7344,571.125 L329.7344,567.8438 L320.9688,567.8438 L320.9688,571.125 C320.9688,571.5156 321,571.6875 321.0781,571.8281 C321.2344,572.0938 321.5313,572.2344 321.8125,572.2344 C322.0938,572.2344 322.3438,572.1094 322.5156,571.8906 C322.625,571.7188 322.6563,571.5781 322.6563,571.125 L322.6563,569.5313 L324.4844,569.5313 L324.4844,576.0469 L323.375,576.0469 C322.9375,576.0469 322.8125,576.0625 322.6563,576.1719 C322.4063,576.3281 322.25,576.6094 322.25,576.9063 C322.25,577.1563 322.3906,577.4219 322.6094,577.5781 C322.7656,577.7031 322.9844,577.75 323.375,577.75 L327.3125,577.75 C327.6406,577.75 327.9063,577.7031 328.0156,577.625 C328.2813,577.4844 328.4219,577.1875 328.4219,576.9063 C328.4219,576.625 328.2969,576.375 328.0625,576.2031 C327.9063,576.0781 327.7656,576.0469 327.3125,576.0469 L326.1875,576.0469 L326.1875,569.5313 Z " fill="#000000"/><text fill="#000000" font-family="sans-serif" font-size="14" lengthAdjust="spacing" textLength="78" x="346.25" y="576.8467">jsonEvents</text><line style="stroke:#181818;stroke-width:0.5;" x1="267.5" x2="470.5" y1="588" y2="588"/><line style="stroke:#181818;stroke-width:0.5;" x1="267.5" x2="470.5" y1="596" y2="596"/><rect fill="#F24D5C" height="6" style="stroke:#C82930;stroke-width:1.0;" width="6" x="274.5" y="606.6484"/><text fill="#000000" font-family="sans-serif" font-size="14" lengthAdjust="spacing" textLength="56" x="286.5" y="612.9951">toMap()</text><text fill="#0000FF" font-family="sans-serif" font-size="14" lengthAdjust="spacing" textLength="32" x="346.5" y="612.9951">map</text><text fill="#000000" font-family="sans-serif" font-size="14" lengthAdjust="spacing" textLength="87" x="378.5" y="612.9951">[uint]*event</text></g><!--MD5=[dbcc8c2202c60ccf85425f4bccf5e773]
class models.users--><g id="elem_models.users"><rect codeLine="111" fill="#F1F1F1" height="64.2969" id="models.users" rx="2.5" ry="2.5" style="stroke:#181818;stroke-width:0.5;" width="209" x="22.5" y="556"/><ellipse cx="104.25" cy="572" fill="#7FFFD4" rx="11" ry="11" style="stroke:#181818;stroke-width:1.0;"/><path d="M108.0313,567.9688 C108.0313,567.5313 108.0156,567.3906 107.9219,567.2344 C107.7813,567 107.5,566.8438 107.2031,566.8438 C106.8594,566.8438 106.7188,566.9844 106.5469,567.4063 C105.9531,567.0313 105.2031,566.8438 104.3281,566.8438 C102.2188,566.8438 100.6406,568.1406 100.6406,569.8594 C100.6406,570.8281 101.1719,571.7344 102.0313,572.2188 C102.5781,572.5313 103.125,572.7031 104.2344,572.8906 C105.3906,573.0938 105.6563,573.1563 106.0156,573.3438 C106.3906,573.5469 106.625,573.8906 106.625,574.25 C106.625,574.9844 105.6406,575.5313 104.3906,575.5313 C103.2656,575.5313 102.1875,575.0469 102.0156,574.4375 C101.8906,573.9688 101.8906,573.9688 101.7656,573.8594 C101.6094,573.7031 101.3906,573.6094 101.1563,573.6094 C100.875,573.6094 100.625,573.7344 100.4531,573.9531 C100.3438,574.125 100.2969,574.3125 100.2969,574.7344 L100.2969,575.8594 C100.2969,576.625 100.5781,576.9844 101.1719,576.9844 C101.4375,576.9844 101.5625,576.9219 101.8438,576.5781 C102.6875,577.0156 103.5781,577.2344 104.5,577.2344 C106.8281,577.2344 108.3906,576.0469 108.3906,574.2813 C108.3906,573.3906 108.0781,572.7031 107.3906,572.1563 C106.8594,571.7344 106.2188,571.4844 104.7344,571.2188 C103.4688,570.9844 103.375,570.9531 103.0469,570.7813 C102.6719,570.5938 102.4063,570.2031 102.4063,569.8438 C102.4063,569.1094 103.2656,568.5469 104.3281,568.5469 C105.3906,568.5469 106.2031,569.0156 106.3594,569.6875 C106.4688,570.2344 106.4688,570.2344 106.5938,570.375 C106.7344,570.5 106.9688,570.6094 107.2031,570.6094 C107.4688,570.6094 107.7188,570.4688 107.8906,570.25 C108,570.0781 108.0313,569.9375 108.0313,569.4688 L108.0313,567.9688 Z " fill="#000000"/><text fill="#000000" font-family="sans-serif" font-size="14" lengthAdjust="spacing" textLength="37" x="124.75" y="576.8467">users</text><line style="stroke:#181818;stroke-width:0.5;" x1="23.5" x2="230.5" y1="588" y2="588"/><line style="stroke:#181818;stroke-width:0.5;" x1="23.5" x2="230.5" y1="596" y2="596"/><ellipse cx="33.5" cy="609.6484" fill="#84BE84" rx="3" ry="3" style="stroke:#038048;stroke-width:1.0;"/><text fill="#000000" font-family="sans-serif" font-size="14" lengthAdjust="spacing" textLength="58" x="42.5" y="612.9951">ToMap()</text><text fill="#0000FF" font-family="sans-serif" font-size="14" lengthAdjust="spacing" textLength="32" x="104.5" y="612.9951">map</text><text fill="#000000" font-family="sans-serif" font-size="14" lengthAdjust="spacing" textLength="89" x="136.5" y="612.9951">[string]*user</text></g><!--MD5=[e2c2123f3cd6fc83d76b4252ccd2829b]
class models.user--><g id="elem_models.user"><rect codeLine="105" fill="#F1F1F1" height="96.8906" id="models.user" rx="2.5" ry="2.5" style="stroke:#181818;stroke-width:0.5;" width="138" x="1100" y="539.5"/><ellipse cx="1149.75" cy="555.5" fill="#7FFFD4" rx="11" ry="11" style="stroke:#181818;stroke-width:1.0;"/><path d="M1153.5313,551.4688 C1153.5313,551.0313 1153.5156,550.8906 1153.4219,550.7344 C1153.2813,550.5 1153,550.3438 1152.7031,550.3438 C1152.3594,550.3438 1152.2188,550.4844 1152.0469,550.9063 C1151.4531,550.5313 1150.7031,550.3438 1149.8281,550.3438 C1147.7188,550.3438 1146.1406,551.6406 1146.1406,553.3594 C1146.1406,554.3281 1146.6719,555.2344 1147.5313,555.7188 C1148.0781,556.0313 1148.625,556.2031 1149.7344,556.3906 C1150.8906,556.5938 1151.1563,556.6563 1151.5156,556.8438 C1151.8906,557.0469 1152.125,557.3906 1152.125,557.75 C1152.125,558.4844 1151.1406,559.0313 1149.8906,559.0313 C1148.7656,559.0313 1147.6875,558.5469 1147.5156,557.9375 C1147.3906,557.4688 1147.3906,557.4688 1147.2656,557.3594 C1147.1094,557.2031 1146.8906,557.1094 1146.6563,557.1094 C1146.375,557.1094 1146.125,557.2344 1145.9531,557.4531 C1145.8438,557.625 1145.7969,557.8125 1145.7969,558.2344 L1145.7969,559.3594 C1145.7969,560.125 1146.0781,560.4844 1146.6719,560.4844 C1146.9375,560.4844 1147.0625,560.4219 1147.3438,560.0781 C1148.1875,560.5156 1149.0781,560.7344 1150,560.7344 C1152.3281,560.7344 1153.8906,559.5469 1153.8906,557.7813 C1153.8906,556.8906 1153.5781,556.2031 1152.8906,555.6563 C1152.3594,555.2344 1151.7188,554.9844 1150.2344,554.7188 C1148.9688,554.4844 1148.875,554.4531 1148.5469,554.2813 C1148.1719,554.0938 1147.9063,553.7031 1147.9063,553.3438 C1147.9063,552.6094 1148.7656,552.0469 1149.8281,552.0469 C1150.8906,552.0469 1151.7031,552.5156 1151.8594,553.1875 C1151.9688,553.7344 1151.9688,553.7344 1152.0938,553.875 C1152.2344,554 1152.4688,554.1094 1152.7031,554.1094 C1152.9688,554.1094 1153.2188,553.9688 1153.3906,553.75 C1153.5,553.5781 1153.5313,553.4375 1153.5313,552.9688 L1153.5313,551.4688 Z " fill="#000000"/><text fill="#000000" font-family="sans-serif" font-size="14" lengthAdjust="spacing" textLength="30" x="1170.25" y="560.3467">user</text><line style="stroke:#181818;stroke-width:0.5;" x1="1101" x2="1237" y1="571.5" y2="571.5"/><ellipse cx="1111" cy="585.1484" fill="none" rx="3" ry="3" style="stroke:#038048;stroke-width:1.0;"/><text fill="#000000" font-family="sans-serif" font-size="14" lengthAdjust="spacing" textLength="87" x="1120" y="588.4951">Name string</text><ellipse cx="1111" cy="601.4453" fill="none" rx="3" ry="3" style="stroke:#038048;stroke-width:1.0;"/><text fill="#000000" font-family="sans-serif" font-size="14" lengthAdjust="spacing" textLength="112" x="1120" y="604.792">Password string</text><ellipse cx="1111" cy="617.7422" fill="none" rx="3" ry="3" style="stroke:#038048;stroke-width:1.0;"/><text fill="#000000" font-family="sans-serif" font-size="14" lengthAdjust="spacing" textLength="108" x="1120" y="621.0889">Function string</text><line style="stroke:#181818;stroke-width:0.5;" x1="1101" x2="1237" y1="628.3906" y2="628.3906"/></g><!--MD5=[b850d5548dc93d3ffd43da750db4a98c]
class models.[]job--><g id="elem_models.[]job"><rect fill="#F1F1F1" height="48" id="models.[]job" rx="2.5" ry="2.5" style="stroke:#181818;stroke-width:0.5;" width="65" x="277.5" y="187.5"/><ellipse cx="292.5" cy="203.5" fill="#ADD1B2" rx="11" ry="11" style="stroke:#181818;stroke-width:1.0;"/><path d="M294.8438,199.1719 C293.9063,198.7344 293.3125,198.5938 292.4375,198.5938 C289.8125,198.5938 287.8125,200.6719 287.8125,203.3906 L287.8125,204.5156 C287.8125,207.0938 289.9219,208.9844 292.8125,208.9844 C294.0313,208.9844 295.1875,208.6875 295.9375,208.1406 C296.5156,207.7344 296.8438,207.2813 296.8438,206.8906 C296.8438,206.4375 296.4531,206.0469 295.9844,206.0469 C295.7656,206.0469 295.5625,206.125 295.375,206.3125 C294.9219,206.7969 294.9219,206.7969 294.7344,206.8906 C294.3125,207.1563 293.625,207.2813 292.8594,207.2813 C290.8125,207.2813 289.5156,206.1875 289.5156,204.4844 L289.5156,203.3906 C289.5156,201.6094 290.7656,200.2969 292.5,200.2969 C293.0781,200.2969 293.6875,200.4531 294.1563,200.7031 C294.6406,200.9844 294.8125,201.2031 294.9063,201.6094 C294.9688,202.0156 295,202.1406 295.1406,202.2656 C295.2813,202.4063 295.5156,202.5156 295.7344,202.5156 C296,202.5156 296.2656,202.375 296.4375,202.1563 C296.5469,202 296.5781,201.8125 296.5781,201.3906 L296.5781,199.9688 C296.5781,199.5313 296.5625,199.4063 296.4688,199.25 C296.3125,198.9844 296.0313,198.8438 295.7344,198.8438 C295.4375,198.8438 295.2344,198.9375 295.0156,199.25 L294.8438,199.1719 Z " fill="#000000"/><text fill="#000000" font-family="sans-serif" font-size="14" lengthAdjust="spacing" textLength="33" x="306.5" y="208.3467">[]job</text><line style="stroke:#181818;stroke-width:0.5;" x1="278.5" x2="341.5" y1="219.5" y2="219.5"/><line style="stroke:#181818;stroke-width:0.5;" x1="278.5" x2="341.5" y1="227.5" y2="227.5"/></g><!--MD5=[5e3c2cb6db07b6ebcd7b315fc49316b9]
class models.[]jsonEvent--><g id="elem_models.[]jsonEvent"><rect fill="#F1F1F1" height="48" id="models.[]jsonEvent" rx="2.5" ry="2.5" style="stroke:#181818;stroke-width:0.5;" width="113" x="129.5" y="187.5"/><ellipse cx="144.5" cy="203.5" fill="#ADD1B2" rx="11" ry="11" style="stroke:#181818;stroke-width:1.0;"/><path d="M146.8438,199.1719 C145.9063,198.7344 145.3125,198.5938 144.4375,198.5938 C141.8125,198.5938 139.8125,200.6719 139.8125,203.3906 L139.8125,204.5156 C139.8125,207.0938 141.9219,208.9844 144.8125,208.9844 C146.0313,208.9844 147.1875,208.6875 147.9375,208.1406 C148.5156,207.7344 148.8438,207.2813 148.8438,206.8906 C148.8438,206.4375 148.4531,206.0469 147.9844,206.0469 C147.7656,206.0469 147.5625,206.125 147.375,206.3125 C146.9219,206.7969 146.9219,206.7969 146.7344,206.8906 C146.3125,207.1563 145.625,207.2813 144.8594,207.2813 C142.8125,207.2813 141.5156,206.1875 141.5156,204.4844 L141.5156,203.3906 C141.5156,201.6094 142.7656,200.2969 144.5,200.2969 C145.0781,200.2969 145.6875,200.4531 146.1563,200.7031 C146.6406,200.9844 146.8125,201.2031 146.9063,201.6094 C146.9688,202.0156 147,202.1406 147.1406,202.2656 C147.2813,202.4063 147.5156,202.5156 147.7344,202.5156 C148,202.5156 148.2656,202.375 148.4375,202.1563 C148.5469,202 148.5781,201.8125 148.5781,201.3906 L148.5781,199.9688 C148.5781,199.5313 148.5625,199.4063 148.4688,199.25 C148.3125,198.9844 148.0313,198.8438 147.7344,198.8438 C147.4375,198.8438 147.2344,198.9375 147.0156,199.25 L146.8438,199.1719 Z " fill="#000000"/><text fill="#000000" font-family="sans-serif" font-size="14" lengthAdjust="spacing" textLength="81" x="158.5" y="208.3467">[]jsonEvent</text><line style="stroke:#181818;stroke-width:0.5;" x1="130.5" x2="241.5" y1="219.5" y2="219.5"/><line style="stroke:#181818;stroke-width:0.5;" x1="130.5" x2="241.5" y1="227.5" y2="227.5"/></g><!--MD5=[f720695c5d3f01a3634e3ac8de84c456]
class models.[]user--><g id="elem_models.[]user"><rect fill="#F1F1F1" height="48" id="models.[]user" rx="2.5" ry="2.5" style="stroke:#181818;stroke-width:0.5;" width="72" x="22" y="187.5"/><ellipse cx="37" cy="203.5" fill="#ADD1B2" rx="11" ry="11" style="stroke:#181818;stroke-width:1.0;"/><path d="M39.3438,199.1719 C38.4063,198.7344 37.8125,198.5938 36.9375,198.5938 C34.3125,198.5938 32.3125,200.6719 32.3125,203.3906 L32.3125,204.5156 C32.3125,207.0938 34.4219,208.9844 37.3125,208.9844 C38.5313,208.9844 39.6875,208.6875 40.4375,208.1406 C41.0156,207.7344 41.3438,207.2813 41.3438,206.8906 C41.3438,206.4375 40.9531,206.0469 40.4844,206.0469 C40.2656,206.0469 40.0625,206.125 39.875,206.3125 C39.4219,206.7969 39.4219,206.7969 39.2344,206.8906 C38.8125,207.1563 38.125,207.2813 37.3594,207.2813 C35.3125,207.2813 34.0156,206.1875 34.0156,204.4844 L34.0156,203.3906 C34.0156,201.6094 35.2656,200.2969 37,200.2969 C37.5781,200.2969 38.1875,200.4531 38.6563,200.7031 C39.1406,200.9844 39.3125,201.2031 39.4063,201.6094 C39.4688,202.0156 39.5,202.1406 39.6406,202.2656 C39.7813,202.4063 40.0156,202.5156 40.2344,202.5156 C40.5,202.5156 40.7656,202.375 40.9375,202.1563 C41.0469,202 41.0781,201.8125 41.0781,201.3906 L41.0781,199.9688 C41.0781,199.5313 41.0625,199.4063 40.9688,199.25 C40.8125,198.9844 40.5313,198.8438 40.2344,198.8438 C39.9375,198.8438 39.7344,198.9375 39.5156,199.25 L39.3438,199.1719 Z " fill="#000000"/><text fill="#000000" font-family="sans-serif" font-size="14" lengthAdjust="spacing" textLength="40" x="51" y="208.3467">[]user</text><line style="stroke:#181818;stroke-width:0.5;" x1="23" x2="93" y1="219.5" y2="219.5"/><line style="stroke:#181818;stroke-width:0.5;" x1="23" x2="93" y1="227.5" y2="227.5"/></g><!--MD5=[f5a79112614d39773efb1d23d99ae45d]
class protocol.DataPacket--><g id="elem_protocol.DataPacket"><rect codeLine="119" fill="#F1F1F1" height="80.5938" id="protocol.DataPacket" rx="2.5" ry="2.5" style="stroke:#181818;stroke-width:0.5;" width="116" x="4265" y="171"/><ellipse cx="4280" cy="187" fill="#7FFFD4" rx="11" ry="11" style="stroke:#181818;stroke-width:1.0;"/><path d="M4283.7813,182.9688 C4283.7813,182.5313 4283.7656,182.3906 4283.6719,182.2344 C4283.5313,182 4283.25,181.8438 4282.9531,181.8438 C4282.6094,181.8438 4282.4688,181.9844 4282.2969,182.4063 C4281.7031,182.0313 4280.9531,181.8438 4280.0781,181.8438 C4277.9688,181.8438 4276.3906,183.1406 4276.3906,184.8594 C4276.3906,185.8281 4276.9219,186.7344 4277.7813,187.2188 C4278.3281,187.5313 4278.875,187.7031 4279.9844,187.8906 C4281.1406,188.0938 4281.4063,188.1563 4281.7656,188.3438 C4282.1406,188.5469 4282.375,188.8906 4282.375,189.25 C4282.375,189.9844 4281.3906,190.5313 4280.1406,190.5313 C4279.0156,190.5313 4277.9375,190.0469 4277.7656,189.4375 C4277.6406,188.9688 4277.6406,188.9688 4277.5156,188.8594 C4277.3594,188.7031 4277.1406,188.6094 4276.9063,188.6094 C4276.625,188.6094 4276.375,188.7344 4276.2031,188.9531 C4276.0938,189.125 4276.0469,189.3125 4276.0469,189.7344 L4276.0469,190.8594 C4276.0469,191.625 4276.3281,191.9844 4276.9219,191.9844 C4277.1875,191.9844 4277.3125,191.9219 4277.5938,191.5781 C4278.4375,192.0156 4279.3281,192.2344 4280.25,192.2344 C4282.5781,192.2344 4284.1406,191.0469 4284.1406,189.2813 C4284.1406,188.3906 4283.8281,187.7031 4283.1406,187.1563 C4282.6094,186.7344 4281.9688,186.4844 4280.4844,186.2188 C4279.2188,185.9844 4279.125,185.9531 4278.7969,185.7813 C4278.4219,185.5938 4278.1563,185.2031 4278.1563,184.8438 C4278.1563,184.1094 4279.0156,183.5469 4280.0781,183.5469 C4281.1406,183.5469 4281.9531,184.0156 4282.1094,184.6875 C4282.2188,185.2344 4282.2188,185.2344 4282.3438,185.375 C4282.4844,185.5 4282.7188,185.6094 4282.9531,185.6094 C4283.2188,185.6094 4283.4688,185.4688 4283.6406,185.25 C4283.75,185.0781 4283.7813,184.9375 4283.7813,184.4688 L4283.7813,182.9688 Z " fill="#000000"/><text fill="#000000" font-family="sans-serif" font-size="14" lengthAdjust="spacing" textLength="84" x="4294" y="191.8467">DataPacket</text><line style="stroke:#181818;stroke-width:0.5;" x1="4266" x2="4380" y1="203" y2="203"/><ellipse cx="4276" cy="216.6484" fill="none" rx="3" ry="3" style="stroke:#038048;stroke-width:1.0;"/><text fill="#000000" font-family="sans-serif" font-size="14" lengthAdjust="spacing" textLength="82" x="4285" y="219.9951">Type string</text><ellipse cx="4276" cy="232.9453" fill="none" rx="3" ry="3" style="stroke:#038048;stroke-width:1.0;"/><text fill="#000000" font-family="sans-serif" font-size="14" lengthAdjust="spacing" textLength="90" x="4285" y="236.292">Data []string</text><line style="stroke:#181818;stroke-width:0.5;" x1="4266" x2="4380" y1="243.5938" y2="243.5938"/></g><!--MD5=[fc9d697489bb7b2abce44d36bb3a45c4]
class protocol.Protocol--><g id="elem_protocol.Protocol"><rect codeLine="124" fill="#F1F1F1" height="96.8906" id="protocol.Protocol" rx="2.5" ry="2.5" style="stroke:#181818;stroke-width:0.5;" width="344" x="3886" y="163"/><ellipse cx="4024.75" cy="179" fill="#B4A7E5" rx="11" ry="11" style="stroke:#181818;stroke-width:1.0;"/><path d="M4025.7031,175.7813 L4027.4219,175.7813 C4027.8125,175.7813 4028,175.75 4028.125,175.6719 C4028.3906,175.5156 4028.5313,175.2344 4028.5313,174.9375 C4028.5313,174.6719 4028.4219,174.4063 4028.1875,174.2344 C4028.0156,174.125 4027.875,174.0938 4027.4219,174.0938 L4022.2813,174.0938 C4021.8438,174.0938 4021.7188,174.1094 4021.5625,174.2031 C4021.3125,174.3594 4021.1563,174.6563 4021.1563,174.9375 C4021.1563,175.2188 4021.2969,175.4688 4021.5156,175.6406 C4021.6719,175.75 4021.8594,175.7813 4022.2813,175.7813 L4024,175.7813 L4024,182.2969 L4022.2813,182.2969 C4021.8438,182.2969 4021.7188,182.3125 4021.5625,182.4219 C4021.3125,182.5781 4021.1563,182.8594 4021.1563,183.1563 C4021.1563,183.4063 4021.2969,183.6719 4021.5156,183.8281 C4021.6719,183.9531 4021.875,184 4022.2813,184 L4027.4219,184 C4028.1719,184 4028.5313,183.7188 4028.5313,183.1563 C4028.5313,182.875 4028.4219,182.625 4028.1875,182.4531 C4028.0156,182.3281 4027.875,182.2969 4027.4219,182.2969 L4025.7031,182.2969 L4025.7031,175.7813 Z " fill="#000000"/><text fill="#000000" font-family="sans-serif" font-size="14" font-style="italic" lengthAdjust="spacing" textLength="58" x="4045.25" y="183.8467">Protocol</text><line style="stroke:#181818;stroke-width:0.5;" x1="3887" x2="4229" y1="195" y2="195"/><line style="stroke:#181818;stroke-width:0.5;" x1="3887" x2="4229" y1="203" y2="203"/><ellipse cx="3897" cy="216.6484" fill="#84BE84" rx="3" ry="3" style="stroke:#038048;stroke-width:1.0;"/><text fill="#000000" font-family="sans-serif" font-size="14" lengthAdjust="spacing" textLength="284" x="3906" y="219.9951">ToSend(data DataPacket) (string, error)</text><ellipse cx="3897" cy="232.9453" fill="#84BE84" rx="3" ry="3" style="stroke:#038048;stroke-width:1.0;"/><text fill="#000000" font-family="sans-serif" font-size="14" lengthAdjust="spacing" textLength="318" x="3906" y="236.292">Receive(message string) (DataPacket, error)</text><ellipse cx="3897" cy="249.2422" fill="#84BE84" rx="3" ry="3" style="stroke:#038048;stroke-width:1.0;"/><text fill="#000000" font-family="sans-serif" font-size="14" lengthAdjust="spacing" textLength="143" x="3906" y="252.5889">GetDelimiter() byte</text></g><!--MD5=[b748da45f1e31749b08094df6013be41]
class protocol.SDRProtocol--><g id="elem_protocol.SDRProtocol"><rect codeLine="130" fill="#F1F1F1" height="129.4844" id="protocol.SDRProtocol" rx="2.5" ry="2.5" style="stroke:#181818;stroke-width:0.5;" width="344" x="3886" y="523.5"/><ellipse cx="4008.25" cy="539.5" fill="#7FFFD4" rx="11" ry="11" style="stroke:#181818;stroke-width:1.0;"/><path d="M4012.0313,535.4688 C4012.0313,535.0313 4012.0156,534.8906 4011.9219,534.7344 C4011.7813,534.5 4011.5,534.3438 4011.2031,534.3438 C4010.8594,534.3438 4010.7188,534.4844 4010.5469,534.9063 C4009.9531,534.5313 4009.2031,534.3438 4008.3281,534.3438 C4006.2188,534.3438 4004.6406,535.6406 4004.6406,537.3594 C4004.6406,538.3281 4005.1719,539.2344 4006.0313,539.7188 C4006.5781,540.0313 4007.125,540.2031 4008.2344,540.3906 C4009.3906,540.5938 4009.6563,540.6563 4010.0156,540.8438 C4010.3906,541.0469 4010.625,541.3906 4010.625,541.75 C4010.625,542.4844 4009.6406,543.0313 4008.3906,543.0313 C4007.2656,543.0313 4006.1875,542.5469 4006.0156,541.9375 C4005.8906,541.4688 4005.8906,541.4688 4005.7656,541.3594 C4005.6094,541.2031 4005.3906,541.1094 4005.1563,541.1094 C4004.875,541.1094 4004.625,541.2344 4004.4531,541.4531 C4004.3438,541.625 4004.2969,541.8125 4004.2969,542.2344 L4004.2969,543.3594 C4004.2969,544.125 4004.5781,544.4844 4005.1719,544.4844 C4005.4375,544.4844 4005.5625,544.4219 4005.8438,544.0781 C4006.6875,544.5156 4007.5781,544.7344 4008.5,544.7344 C4010.8281,544.7344 4012.3906,543.5469 4012.3906,541.7813 C4012.3906,540.8906 4012.0781,540.2031 4011.3906,539.6563 C4010.8594,539.2344 4010.2188,538.9844 4008.7344,538.7188 C4007.4688,538.4844 4007.375,538.4531 4007.0469,538.2813 C4006.6719,538.0938 4006.4063,537.7031 4006.4063,537.3438 C4006.4063,536.6094 4007.2656,536.0469 4008.3281,536.0469 C4009.3906,536.0469 4010.2031,536.5156 4010.3594,537.1875 C4010.4688,537.7344 4010.4688,537.7344 4010.5938,537.875 C4010.7344,538 4010.9688,538.1094 4011.2031,538.1094 C4011.4688,538.1094 4011.7188,537.9688 4011.8906,537.75 C4012,537.5781 4012.0313,537.4375 4012.0313,536.9688 L4012.0313,535.4688 Z " fill="#000000"/><text fill="#000000" font-family="sans-serif" font-size="14" lengthAdjust="spacing" textLength="91" x="4028.75" y="544.3467">SDRProtocol</text><line style="stroke:#181818;stroke-width:0.5;" x1="3887" x2="4229" y1="555.5" y2="555.5"/><line style="stroke:#181818;stroke-width:0.5;" x1="3887" x2="4229" y1="563.5" y2="563.5"/><ellipse cx="3897" cy="577.1484" fill="#84BE84" rx="3" ry="3" style="stroke:#038048;stroke-width:1.0;"/><text fill="#000000" font-family="sans-serif" font-size="14" lengthAdjust="spacing" textLength="284" x="3906" y="580.4951">ToSend(data DataPacket) (string, error)</text><ellipse cx="3897" cy="593.4453" fill="#84BE84" rx="3" ry="3" style="stroke:#038048;stroke-width:1.0;"/><text fill="#000000" font-family="sans-serif" font-size="14" lengthAdjust="spacing" textLength="318" x="3906" y="596.792">Receive(message string) (DataPacket, error)</text><ellipse cx="3897" cy="609.7422" fill="#84BE84" rx="3" ry="3" style="stroke:#038048;stroke-width:1.0;"/><text fill="#000000" font-family="sans-serif" font-size="14" lengthAdjust="spacing" textLength="143" x="3906" y="613.0889">GetDelimiter() byte</text><ellipse cx="3897" cy="626.0391" fill="#84BE84" rx="3" ry="3" style="stroke:#038048;stroke-width:1.0;"/><text fill="#000000" font-family="sans-serif" font-size="14" lengthAdjust="spacing" textLength="273" x="3906" y="629.3857">NewError(message string) DataPacket</text><ellipse cx="3897" cy="642.3359" fill="#84BE84" rx="3" ry="3" style="stroke:#038048;stroke-width:1.0;"/><text fill="#000000" font-family="sans-serif" font-size="14" lengthAdjust="spacing" textLength="293" x="3906" y="645.6826">NewSuccess(message string) DataPacket</text></g><!--MD5=[432216b430a913c0c278fa18c40328bb]
class server.Server--><g id="elem_server.Server"><rect codeLine="143" fill="#F1F1F1" height="292.4531" id="server.Server" rx="2.5" ry="2.5" style="stroke:#181818;stroke-width:0.5;" width="395" x="1816.5" y="442"/><ellipse cx="1986.25" cy="458" fill="#7FFFD4" rx="11" ry="11" style="stroke:#181818;stroke-width:1.0;"/><path d="M1990.0313,453.9688 C1990.0313,453.5313 1990.0156,453.3906 1989.9219,453.2344 C1989.7813,453 1989.5,452.8438 1989.2031,452.8438 C1988.8594,452.8438 1988.7188,452.9844 1988.5469,453.4063 C1987.9531,453.0313 1987.2031,452.8438 1986.3281,452.8438 C1984.2188,452.8438 1982.6406,454.1406 1982.6406,455.8594 C1982.6406,456.8281 1983.1719,457.7344 1984.0313,458.2188 C1984.5781,458.5313 1985.125,458.7031 1986.2344,458.8906 C1987.3906,459.0938 1987.6563,459.1563 1988.0156,459.3438 C1988.3906,459.5469 1988.625,459.8906 1988.625,460.25 C1988.625,460.9844 1987.6406,461.5313 1986.3906,461.5313 C1985.2656,461.5313 1984.1875,461.0469 1984.0156,460.4375 C1983.8906,459.9688 1983.8906,459.9688 1983.7656,459.8594 C1983.6094,459.7031 1983.3906,459.6094 1983.1563,459.6094 C1982.875,459.6094 1982.625,459.7344 1982.4531,459.9531 C1982.3438,460.125 1982.2969,460.3125 1982.2969,460.7344 L1982.2969,461.8594 C1982.2969,462.625 1982.5781,462.9844 1983.1719,462.9844 C1983.4375,462.9844 1983.5625,462.9219 1983.8438,462.5781 C1984.6875,463.0156 1985.5781,463.2344 1986.5,463.2344 C1988.8281,463.2344 1990.3906,462.0469 1990.3906,460.2813 C1990.3906,459.3906 1990.0781,458.7031 1989.3906,458.1563 C1988.8594,457.7344 1988.2188,457.4844 1986.7344,457.2188 C1985.4688,456.9844 1985.375,456.9531 1985.0469,456.7813 C1984.6719,456.5938 1984.4063,456.2031 1984.4063,455.8438 C1984.4063,455.1094 1985.2656,454.5469 1986.3281,454.5469 C1987.3906,454.5469 1988.2031,455.0156 1988.3594,455.6875 C1988.4688,456.2344 1988.4688,456.2344 1988.5938,456.375 C1988.7344,456.5 1988.9688,456.6094 1989.2031,456.6094 C1989.4688,456.6094 1989.7188,456.4688 1989.8906,456.25 C1990,456.0781 1990.0313,455.9375 1990.0313,455.4688 L1990.0313,453.9688 Z " fill="#000000"/><text fill="#000000" font-family="sans-serif" font-size="14" lengthAdjust="spacing" textLength="47" x="2006.75" y="462.8467">Server</text><line style="stroke:#181818;stroke-width:0.5;" x1="1817.5" x2="2210.5" y1="474" y2="474"/><rect fill="none" height="6" style="stroke:#C82930;stroke-width:1.0;" width="6" x="1824.5" y="484.6484"/><text fill="#000000" font-family="sans-serif" font-size="14" lengthAdjust="spacing" textLength="78" x="1836.5" y="490.9951">host string</text><rect fill="none" height="6" style="stroke:#C82930;stroke-width:1.0;" width="6" x="1824.5" y="500.9453"/><text fill="#000000" font-family="sans-serif" font-size="14" lengthAdjust="spacing" textLength="78" x="1836.5" y="507.292">port string</text><rect fill="none" height="6" style="stroke:#C82930;stroke-width:1.0;" width="6" x="1824.5" y="517.2422"/><text fill="#000000" font-family="sans-serif" font-size="14" lengthAdjust="spacing" textLength="171" x="1836.5" y="523.5889">dbm *databaseManager</text><rect fill="none" height="6" style="stroke:#C82930;stroke-width:1.0;" width="6" x="1824.5" y="533.5391"/><text fill="#000000" font-family="sans-serif" font-size="14" lengthAdjust="spacing" textLength="299" x="1836.5" y="539.8857">messagingProtocol protocol.SDRProtocol</text><rect fill="none" height="6" style="stroke:#C82930;stroke-width:1.0;" width="6" x="1824.5" y="549.8359"/><text fill="#000000" font-family="sans-serif" font-size="14" lengthAdjust="spacing" textLength="110" x="1836.5" y="556.1826">debugFlag bool</text><text fill="#000000" font-family="sans-serif" font-size="14" lengthAdjust="spacing" textLength="4" x="1836.5" y="572.4795"> </text><ellipse cx="1827.5" cy="585.4297" fill="none" rx="3" ry="3" style="stroke:#038048;stroke-width:1.0;"/><text fill="#000000" font-family="sans-serif" font-size="14" lengthAdjust="spacing" textLength="37" x="1836.5" y="588.7764">Id int</text><line style="stroke:#181818;stroke-width:0.5;" x1="1817.5" x2="2210.5" y1="596.0781" y2="596.0781"/><rect fill="#F24D5C" height="6" style="stroke:#C82930;stroke-width:1.0;" width="6" x="1824.5" y="606.7266"/><text fill="#000000" font-family="sans-serif" font-size="14" lengthAdjust="spacing" textLength="322" x="1836.5" y="613.0732">connectToServer(serverConfig serverConfig)</text><rect fill="#F24D5C" height="6" style="stroke:#C82930;stroke-width:1.0;" width="6" x="1824.5" y="623.0234"/><text fill="#000000" font-family="sans-serif" font-size="14" lengthAdjust="spacing" textLength="338" x="1836.5" y="629.3701">handleConnectionFromServer(conn *net.Conn)</text><rect fill="#F24D5C" height="6" style="stroke:#C82930;stroke-width:1.0;" width="6" x="1824.5" y="639.3203"/><text fill="#000000" font-family="sans-serif" font-size="14" lengthAdjust="spacing" textLength="369" x="1836.5" y="645.667">connectToPrecedingServers(config networkConfig)</text><rect fill="#F24D5C" height="6" style="stroke:#C82930;stroke-width:1.0;" width="6" x="1824.5" y="655.6172"/><text fill="#000000" font-family="sans-serif" font-size="14" lengthAdjust="spacing" textLength="177" x="1836.5" y="661.9639">startWaitingForServers()</text><rect fill="#F24D5C" height="6" style="stroke:#C82930;stroke-width:1.0;" width="6" x="1824.5" y="671.9141"/><text fill="#000000" font-family="sans-serif" font-size="14" lengthAdjust="spacing" textLength="104" x="1836.5" y="678.2607">isDebug() bool</text><rect fill="#F24D5C" height="6" style="stroke:#C82930;stroke-width:1.0;" width="6" x="1824.5" y="688.2109"/><text fill="#000000" font-family="sans-serif" font-size="14" lengthAdjust="spacing" textLength="45" x="1836.5" y="694.5576">start()</text><rect fill="#F24D5C" height="6" style="stroke:#C82930;stroke-width:1.0;" width="6" x="1824.5" y="704.5078"/><text fill="#000000" font-family="sans-serif" font-size="14" lengthAdjust="spacing" textLength="282" x="1836.5" y="710.8545">closeRequest(client *clientConnection)</text><rect fill="#F24D5C" height="6" style="stroke:#C82930;stroke-width:1.0;" width="6" x="1824.5" y="720.8047"/><text fill="#000000" font-family="sans-serif" font-size="14" lengthAdjust="spacing" textLength="293" x="1836.5" y="727.1514">handleRequest(client *clientConnection)</text></g><!--MD5=[c990af3d543e19465ad120f20a1795d9]
class server.clientConnection--><g id="elem_server.clientConnection"><rect codeLine="162" fill="#F1F1F1" height="227.2656" id="server.clientConnection" rx="2.5" ry="2.5" style="stroke:#181818;stroke-width:0.5;" width="300" x="2667" y="98"/><ellipse cx="2750.75" cy="114" fill="#7FFFD4" rx="11" ry="11" style="stroke:#181818;stroke-width:1.0;"/><path d="M2754.5313,109.9688 C2754.5313,109.5313 2754.5156,109.3906 2754.4219,109.2344 C2754.2813,109 2754,108.8438 2753.7031,108.8438 C2753.3594,108.8438 2753.2188,108.9844 2753.0469,109.4063 C2752.4531,109.0313 2751.7031,108.8438 2750.8281,108.8438 C2748.7188,108.8438 2747.1406,110.1406 2747.1406,111.8594 C2747.1406,112.8281 2747.6719,113.7344 2748.5313,114.2188 C2749.0781,114.5313 2749.625,114.7031 2750.7344,114.8906 C2751.8906,115.0938 2752.1563,115.1563 2752.5156,115.3438 C2752.8906,115.5469 2753.125,115.8906 2753.125,116.25 C2753.125,116.9844 2752.1406,117.5313 2750.8906,117.5313 C2749.7656,117.5313 2748.6875,117.0469 2748.5156,116.4375 C2748.3906,115.9688 2748.3906,115.9688 2748.2656,115.8594 C2748.1094,115.7031 2747.8906,115.6094 2747.6563,115.6094 C2747.375,115.6094 2747.125,115.7344 2746.9531,115.9531 C2746.8438,116.125 2746.7969,116.3125 2746.7969,116.7344 L2746.7969,117.8594 C2746.7969,118.625 2747.0781,118.9844 2747.6719,118.9844 C2747.9375,118.9844 2748.0625,118.9219 2748.3438,118.5781 C2749.1875,119.0156 2750.0781,119.2344 2751,119.2344 C2753.3281,119.2344 2754.8906,118.0469 2754.8906,116.2813 C2754.8906,115.3906 2754.5781,114.7031 2753.8906,114.1563 C2753.3594,113.7344 2752.7188,113.4844 2751.2344,113.2188 C2749.9688,112.9844 2749.875,112.9531 2749.5469,112.7813 C2749.1719,112.5938 2748.9063,112.2031 2748.9063,111.8438 C2748.9063,111.1094 2749.7656,110.5469 2750.8281,110.5469 C2751.8906,110.5469 2752.7031,111.0156 2752.8594,111.6875 C2752.9688,112.2344 2752.9688,112.2344 2753.0938,112.375 C2753.2344,112.5 2753.4688,112.6094 2753.7031,112.6094 C2753.9688,112.6094 2754.2188,112.4688 2754.3906,112.25 C2754.5,112.0781 2754.5313,111.9375 2754.5313,111.4688 L2754.5313,109.9688 Z " fill="#000000"/><text fill="#000000" font-family="sans-serif" font-size="14" lengthAdjust="spacing" textLength="124" x="2771.25" y="118.8467">clientConnection</text><line style="stroke:#181818;stroke-width:0.5;" x1="2668" x2="2966" y1="130" y2="130"/><rect fill="none" height="6" style="stroke:#C82930;stroke-width:1.0;" width="6" x="2675" y="140.6484"/><text fill="#000000" font-family="sans-serif" font-size="14" lengthAdjust="spacing" textLength="141" x="2687" y="146.9951">bufin *bufio.Reader</text><rect fill="none" height="6" style="stroke:#C82930;stroke-width:1.0;" width="6" x="2675" y="156.9453"/><text fill="#000000" font-family="sans-serif" font-size="14" lengthAdjust="spacing" textLength="147" x="2687" y="163.292">bufout *bufio.Writer</text><rect fill="none" height="6" style="stroke:#C82930;stroke-width:1.0;" width="6" x="2675" y="173.2422"/><text fill="#000000" font-family="sans-serif" font-size="14" lengthAdjust="spacing" textLength="113" x="2687" y="179.5889">conn *net.Conn</text><rect fill="none" height="6" style="stroke:#C82930;stroke-width:1.0;" width="6" x="2675" y="189.5391"/><text fill="#000000" font-family="sans-serif" font-size="14" lengthAdjust="spacing" textLength="154" x="2687" y="195.8857">connectedUser string</text><rect fill="none" height="6" style="stroke:#C82930;stroke-width:1.0;" width="6" x="2675" y="205.8359"/><text fill="#000000" font-family="sans-serif" font-size="14" lengthAdjust="spacing" textLength="103" x="2687" y="212.1826">server *Server</text><rect fill="none" height="6" style="stroke:#C82930;stroke-width:1.0;" width="6" x="2675" y="222.1328"/><text fill="#000000" font-family="sans-serif" font-size="14" lengthAdjust="spacing" textLength="94" x="2687" y="228.4795">isDebug bool</text><line style="stroke:#181818;stroke-width:0.5;" x1="2668" x2="2966" y1="235.7813" y2="235.7813"/><rect fill="#F24D5C" height="6" style="stroke:#C82930;stroke-width:1.0;" width="6" x="2675" y="246.4297"/><text fill="#000000" font-family="sans-serif" font-size="14" lengthAdjust="spacing" textLength="251" x="2687" y="252.7764">read() (protocol.DataPacket, error)</text><rect fill="#F24D5C" height="6" style="stroke:#C82930;stroke-width:1.0;" width="6" x="2675" y="262.7266"/><text fill="#000000" font-family="sans-serif" font-size="14" lengthAdjust="spacing" textLength="274" x="2687" y="269.0732">write(data protocol.DataPacket) error</text><rect fill="#F24D5C" height="6" style="stroke:#C82930;stroke-width:1.0;" width="6" x="2675" y="279.0234"/><text fill="#000000" font-family="sans-serif" font-size="14" lengthAdjust="spacing" textLength="229" x="2687" y="285.3701">sendError(message string) error</text><rect fill="#F24D5C" height="6" style="stroke:#C82930;stroke-width:1.0;" width="6" x="2675" y="295.3203"/><text fill="#000000" font-family="sans-serif" font-size="14" lengthAdjust="spacing" textLength="249" x="2687" y="301.667">sendSuccess(message string) error</text><rect fill="#F24D5C" height="6" style="stroke:#C82930;stroke-width:1.0;" width="6" x="2675" y="311.6172"/><text fill="#000000" font-family="sans-serif" font-size="14" lengthAdjust="spacing" textLength="47" x="2687" y="317.9639">close()</text></g><!--MD5=[28bfb8d22b43a357c070fa4a7935c389]
class server.databaseManager--><g id="elem_server.databaseManager"><rect codeLine="177" fill="#F1F1F1" height="178.375" id="server.databaseManager" rx="2.5" ry="2.5" style="stroke:#181818;stroke-width:0.5;" width="613" x="2246.5" y="499"/><ellipse cx="2485.25" cy="515" fill="#7FFFD4" rx="11" ry="11" style="stroke:#181818;stroke-width:1.0;"/><path d="M2489.0313,510.9688 C2489.0313,510.5313 2489.0156,510.3906 2488.9219,510.2344 C2488.7813,510 2488.5,509.8438 2488.2031,509.8438 C2487.8594,509.8438 2487.7188,509.9844 2487.5469,510.4063 C2486.9531,510.0313 2486.2031,509.8438 2485.3281,509.8438 C2483.2188,509.8438 2481.6406,511.1406 2481.6406,512.8594 C2481.6406,513.8281 2482.1719,514.7344 2483.0313,515.2188 C2483.5781,515.5313 2484.125,515.7031 2485.2344,515.8906 C2486.3906,516.0938 2486.6563,516.1563 2487.0156,516.3438 C2487.3906,516.5469 2487.625,516.8906 2487.625,517.25 C2487.625,517.9844 2486.6406,518.5313 2485.3906,518.5313 C2484.2656,518.5313 2483.1875,518.0469 2483.0156,517.4375 C2482.8906,516.9688 2482.8906,516.9688 2482.7656,516.8594 C2482.6094,516.7031 2482.3906,516.6094 2482.1563,516.6094 C2481.875,516.6094 2481.625,516.7344 2481.4531,516.9531 C2481.3438,517.125 2481.2969,517.3125 2481.2969,517.7344 L2481.2969,518.8594 C2481.2969,519.625 2481.5781,519.9844 2482.1719,519.9844 C2482.4375,519.9844 2482.5625,519.9219 2482.8438,519.5781 C2483.6875,520.0156 2484.5781,520.2344 2485.5,520.2344 C2487.8281,520.2344 2489.3906,519.0469 2489.3906,517.2813 C2489.3906,516.3906 2489.0781,515.7031 2488.3906,515.1563 C2487.8594,514.7344 2487.2188,514.4844 2485.7344,514.2188 C2484.4688,513.9844 2484.375,513.9531 2484.0469,513.7813 C2483.6719,513.5938 2483.4063,513.2031 2483.4063,512.8438 C2483.4063,512.1094 2484.2656,511.5469 2485.3281,511.5469 C2486.3906,511.5469 2487.2031,512.0156 2487.3594,512.6875 C2487.4688,513.2344 2487.4688,513.2344 2487.5938,513.375 C2487.7344,513.5 2487.9688,513.6094 2488.2031,513.6094 C2488.4688,513.6094 2488.7188,513.4688 2488.8906,513.25 C2489,513.0781 2489.0313,512.9375 2489.0313,512.4688 L2489.0313,510.9688 Z " fill="#000000"/><text fill="#000000" font-family="sans-serif" font-size="14" lengthAdjust="spacing" textLength="127" x="2505.75" y="519.8467">databaseManager</text><line style="stroke:#181818;stroke-width:0.5;" x1="2247.5" x2="2858.5" y1="531" y2="531"/><rect fill="none" height="6" style="stroke:#C82930;stroke-width:1.0;" width="6" x="2254.5" y="541.6484"/><text fill="#000000" font-family="sans-serif" font-size="14" lengthAdjust="spacing" textLength="148" x="2266.5" y="547.9951">db models.Database</text><rect fill="none" height="6" style="stroke:#C82930;stroke-width:1.0;" width="6" x="2254.5" y="557.9453"/><text fill="#000000" font-family="sans-serif" font-size="14" lengthAdjust="spacing" textLength="113" x="2266.5" y="564.292">requestChannel</text><text fill="#0000FF" font-family="sans-serif" font-size="14" lengthAdjust="spacing" textLength="34" x="2383.5" y="564.292">chan</text><text fill="#000000" font-family="sans-serif" font-size="14" lengthAdjust="spacing" textLength="125" x="2421.5" y="564.292">databaseRequest</text><rect fill="none" height="6" style="stroke:#C82930;stroke-width:1.0;" width="6" x="2254.5" y="574.2422"/><text fill="#000000" font-family="sans-serif" font-size="14" lengthAdjust="spacing" textLength="110" x="2266.5" y="580.5889">debugFlag bool</text><line style="stroke:#181818;stroke-width:0.5;" x1="2247.5" x2="2858.5" y1="587.8906" y2="587.8906"/><rect fill="#F24D5C" height="6" style="stroke:#C82930;stroke-width:1.0;" width="6" x="2254.5" y="598.5391"/><text fill="#000000" font-family="sans-serif" font-size="14" lengthAdjust="spacing" textLength="104" x="2266.5" y="604.8857">isDebug() bool</text><rect fill="#F24D5C" height="6" style="stroke:#C82930;stroke-width:1.0;" width="6" x="2254.5" y="614.8359"/><text fill="#000000" font-family="sans-serif" font-size="14" lengthAdjust="spacing" textLength="45" x="2266.5" y="621.1826">start()</text><rect fill="#F24D5C" height="6" style="stroke:#C82930;stroke-width:1.0;" width="6" x="2254.5" y="631.1328"/><text fill="#000000" font-family="sans-serif" font-size="14" lengthAdjust="spacing" textLength="301" x="2266.5" y="637.4795">handleRequest(request databaseRequest)</text><rect fill="#F24D5C" height="6" style="stroke:#C82930;stroke-width:1.0;" width="6" x="2254.5" y="647.4297"/><text fill="#000000" font-family="sans-serif" font-size="14" lengthAdjust="spacing" textLength="587" x="2266.5" y="653.7764">logInUser(client *clientConnection, username string, password string) (bool, error)</text><rect fill="#F24D5C" height="6" style="stroke:#C82930;stroke-width:1.0;" width="6" x="2254.5" y="663.7266"/><text fill="#000000" font-family="sans-serif" font-size="14" lengthAdjust="spacing" textLength="432" x="2266.5" y="670.0732">checkIfOrganizer(client *clientConnection, eventId int) bool</text></g><!--MD5=[f295001c12737ab7bbe217765a78c11b]
class server.databaseRequest--><g id="elem_server.databaseRequest"><rect codeLine="189" fill="#F1F1F1" height="80.5938" id="server.databaseRequest" rx="2.5" ry="2.5" style="stroke:#181818;stroke-width:0.5;" width="237" x="3002.5" y="171"/><ellipse cx="3054.25" cy="187" fill="#7FFFD4" rx="11" ry="11" style="stroke:#181818;stroke-width:1.0;"/><path d="M3058.0313,182.9688 C3058.0313,182.5313 3058.0156,182.3906 3057.9219,182.2344 C3057.7813,182 3057.5,181.8438 3057.2031,181.8438 C3056.8594,181.8438 3056.7188,181.9844 3056.5469,182.4063 C3055.9531,182.0313 3055.2031,181.8438 3054.3281,181.8438 C3052.2188,181.8438 3050.6406,183.1406 3050.6406,184.8594 C3050.6406,185.8281 3051.1719,186.7344 3052.0313,187.2188 C3052.5781,187.5313 3053.125,187.7031 3054.2344,187.8906 C3055.3906,188.0938 3055.6563,188.1563 3056.0156,188.3438 C3056.3906,188.5469 3056.625,188.8906 3056.625,189.25 C3056.625,189.9844 3055.6406,190.5313 3054.3906,190.5313 C3053.2656,190.5313 3052.1875,190.0469 3052.0156,189.4375 C3051.8906,188.9688 3051.8906,188.9688 3051.7656,188.8594 C3051.6094,188.7031 3051.3906,188.6094 3051.1563,188.6094 C3050.875,188.6094 3050.625,188.7344 3050.4531,188.9531 C3050.3438,189.125 3050.2969,189.3125 3050.2969,189.7344 L3050.2969,190.8594 C3050.2969,191.625 3050.5781,191.9844 3051.1719,191.9844 C3051.4375,191.9844 3051.5625,191.9219 3051.8438,191.5781 C3052.6875,192.0156 3053.5781,192.2344 3054.5,192.2344 C3056.8281,192.2344 3058.3906,191.0469 3058.3906,189.2813 C3058.3906,188.3906 3058.0781,187.7031 3057.3906,187.1563 C3056.8594,186.7344 3056.2188,186.4844 3054.7344,186.2188 C3053.4688,185.9844 3053.375,185.9531 3053.0469,185.7813 C3052.6719,185.5938 3052.4063,185.2031 3052.4063,184.8438 C3052.4063,184.1094 3053.2656,183.5469 3054.3281,183.5469 C3055.3906,183.5469 3056.2031,184.0156 3056.3594,184.6875 C3056.4688,185.2344 3056.4688,185.2344 3056.5938,185.375 C3056.7344,185.5 3056.9688,185.6094 3057.2031,185.6094 C3057.4688,185.6094 3057.7188,185.4688 3057.8906,185.25 C3058,185.0781 3058.0313,184.9375 3058.0313,184.4688 L3058.0313,182.9688 Z " fill="#000000"/><text fill="#000000" font-family="sans-serif" font-size="14" lengthAdjust="spacing" textLength="125" x="3074.75" y="191.8467">databaseRequest</text><line style="stroke:#181818;stroke-width:0.5;" x1="3003.5" x2="3238.5" y1="203" y2="203"/><rect fill="none" height="6" style="stroke:#C82930;stroke-width:1.0;" width="6" x="3010.5" y="213.6484"/><text fill="#000000" font-family="sans-serif" font-size="14" lengthAdjust="spacing" textLength="184" x="3022.5" y="219.9951">sender *clientConnection</text><rect fill="none" height="6" style="stroke:#C82930;stroke-width:1.0;" width="6" x="3010.5" y="229.9453"/><text fill="#000000" font-family="sans-serif" font-size="14" lengthAdjust="spacing" textLength="211" x="3022.5" y="236.292">payload protocol.DataPacket</text><line style="stroke:#181818;stroke-width:0.5;" x1="3003.5" x2="3238.5" y1="243.5938" y2="243.5938"/></g><!--MD5=[690cdaada38b3fb2d609bd70d4a3cc9f]
class server.debuggable--><g id="elem_server.debuggable"><rect codeLine="194" fill="#F1F1F1" height="64.2969" id="server.debuggable" rx="2.5" ry="2.5" style="stroke:#181818;stroke-width:0.5;" width="130" x="2218" y="179.5"/><ellipse cx="2238.85" cy="195.5" fill="#B4A7E5" rx="11" ry="11" style="stroke:#181818;stroke-width:1.0;"/><path d="M2239.8031,192.2813 L2241.5219,192.2813 C2241.9125,192.2813 2242.1,192.25 2242.225,192.1719 C2242.4906,192.0156 2242.6313,191.7344 2242.6313,191.4375 C2242.6313,191.1719 2242.5219,190.9063 2242.2875,190.7344 C2242.1156,190.625 2241.975,190.5938 2241.5219,190.5938 L2236.3813,190.5938 C2235.9438,190.5938 2235.8188,190.6094 2235.6625,190.7031 C2235.4125,190.8594 2235.2563,191.1563 2235.2563,191.4375 C2235.2563,191.7188 2235.3969,191.9688 2235.6156,192.1406 C2235.7719,192.25 2235.9594,192.2813 2236.3813,192.2813 L2238.1,192.2813 L2238.1,198.7969 L2236.3813,198.7969 C2235.9438,198.7969 2235.8188,198.8125 2235.6625,198.9219 C2235.4125,199.0781 2235.2563,199.3594 2235.2563,199.6563 C2235.2563,199.9063 2235.3969,200.1719 2235.6156,200.3281 C2235.7719,200.4531 2235.975,200.5 2236.3813,200.5 L2241.5219,200.5 C2242.2719,200.5 2242.6313,200.2188 2242.6313,199.6563 C2242.6313,199.375 2242.5219,199.125 2242.2875,198.9531 C2242.1156,198.8281 2241.975,198.7969 2241.5219,198.7969 L2239.8031,198.7969 L2239.8031,192.2813 Z " fill="#000000"/><text fill="#000000" font-family="sans-serif" font-size="14" font-style="italic" lengthAdjust="spacing" textLength="85" x="2254.15" y="200.3467">debuggable</text><line style="stroke:#181818;stroke-width:0.5;" x1="2219" x2="2347" y1="211.5" y2="211.5"/><line style="stroke:#181818;stroke-width:0.5;" x1="2219" x2="2347" y1="219.5" y2="219.5"/><rect fill="#F24D5C" height="6" style="stroke:#C82930;stroke-width:1.0;" width="6" x="2226" y="230.1484"/><text fill="#000000" font-family="sans-serif" font-size="14" lengthAdjust="spacing" textLength="104" x="2238" y="236.4951">isDebug() bool</text></g><!--MD5=[1291c394dd620be2e6ad514871ea8662]
class server.networkConfig--><g id="elem_server.networkConfig"><rect codeLine="198" fill="#F1F1F1" height="80.5938" id="server.networkConfig" rx="2.5" ry="2.5" style="stroke:#181818;stroke-width:0.5;" width="186" x="2895" y="547.5"/><ellipse cx="2931.15" cy="563.5" fill="#7FFFD4" rx="11" ry="11" style="stroke:#181818;stroke-width:1.0;"/><path d="M2934.9313,559.4688 C2934.9313,559.0313 2934.9156,558.8906 2934.8219,558.7344 C2934.6813,558.5 2934.4,558.3438 2934.1031,558.3438 C2933.7594,558.3438 2933.6188,558.4844 2933.4469,558.9063 C2932.8531,558.5313 2932.1031,558.3438 2931.2281,558.3438 C2929.1188,558.3438 2927.5406,559.6406 2927.5406,561.3594 C2927.5406,562.3281 2928.0719,563.2344 2928.9313,563.7188 C2929.4781,564.0313 2930.025,564.2031 2931.1344,564.3906 C2932.2906,564.5938 2932.5563,564.6563 2932.9156,564.8438 C2933.2906,565.0469 2933.525,565.3906 2933.525,565.75 C2933.525,566.4844 2932.5406,567.0313 2931.2906,567.0313 C2930.1656,567.0313 2929.0875,566.5469 2928.9156,565.9375 C2928.7906,565.4688 2928.7906,565.4688 2928.6656,565.3594 C2928.5094,565.2031 2928.2906,565.1094 2928.0563,565.1094 C2927.775,565.1094 2927.525,565.2344 2927.3531,565.4531 C2927.2438,565.625 2927.1969,565.8125 2927.1969,566.2344 L2927.1969,567.3594 C2927.1969,568.125 2927.4781,568.4844 2928.0719,568.4844 C2928.3375,568.4844 2928.4625,568.4219 2928.7438,568.0781 C2929.5875,568.5156 2930.4781,568.7344 2931.4,568.7344 C2933.7281,568.7344 2935.2906,567.5469 2935.2906,565.7813 C2935.2906,564.8906 2934.9781,564.2031 2934.2906,563.6563 C2933.7594,563.2344 2933.1188,562.9844 2931.6344,562.7188 C2930.3688,562.4844 2930.275,562.4531 2929.9469,562.2813 C2929.5719,562.0938 2929.3063,561.7031 2929.3063,561.3438 C2929.3063,560.6094 2930.1656,560.0469 2931.2281,560.0469 C2932.2906,560.0469 2933.1031,560.5156 2933.2594,561.1875 C2933.3688,561.7344 2933.3688,561.7344 2933.4938,561.875 C2933.6344,562 2933.8688,562.1094 2934.1031,562.1094 C2934.3688,562.1094 2934.6188,561.9688 2934.7906,561.75 C2934.9,561.5781 2934.9313,561.4375 2934.9313,560.9688 L2934.9313,559.4688 Z " fill="#000000"/><text fill="#000000" font-family="sans-serif" font-size="14" lengthAdjust="spacing" textLength="107" x="2949.85" y="568.3467">networkConfig</text><line style="stroke:#181818;stroke-width:0.5;" x1="2896" x2="3080" y1="579.5" y2="579.5"/><ellipse cx="2906" cy="593.1484" fill="none" rx="3" ry="3" style="stroke:#038048;stroke-width:1.0;"/><text fill="#000000" font-family="sans-serif" font-size="14" lengthAdjust="spacing" textLength="98" x="2915" y="596.4951">NbServers int</text><ellipse cx="2906" cy="609.4453" fill="none" rx="3" ry="3" style="stroke:#038048;stroke-width:1.0;"/><text fill="#000000" font-family="sans-serif" font-size="14" lengthAdjust="spacing" textLength="160" x="2915" y="612.792">Servers []serverConfig</text><line style="stroke:#181818;stroke-width:0.5;" x1="2896" x2="3080" y1="620.0938" y2="620.0938"/></g><!--MD5=[454c092159591acab70f9991ef1cb58e]
class server.serverConfig--><g id="elem_server.serverConfig"><rect codeLine="203" fill="#F1F1F1" height="96.8906" id="server.serverConfig" rx="2.5" ry="2.5" style="stroke:#181818;stroke-width:0.5;" width="124" x="3116" y="539.5"/><ellipse cx="3131" cy="555.5" fill="#7FFFD4" rx="11" ry="11" style="stroke:#181818;stroke-width:1.0;"/><path d="M3134.7813,551.4688 C3134.7813,551.0313 3134.7656,550.8906 3134.6719,550.7344 C3134.5313,550.5 3134.25,550.3438 3133.9531,550.3438 C3133.6094,550.3438 3133.4688,550.4844 3133.2969,550.9063 C3132.7031,550.5313 3131.9531,550.3438 3131.0781,550.3438 C3128.9688,550.3438 3127.3906,551.6406 3127.3906,553.3594 C3127.3906,554.3281 3127.9219,555.2344 3128.7813,555.7188 C3129.3281,556.0313 3129.875,556.2031 3130.9844,556.3906 C3132.1406,556.5938 3132.4063,556.6563 3132.7656,556.8438 C3133.1406,557.0469 3133.375,557.3906 3133.375,557.75 C3133.375,558.4844 3132.3906,559.0313 3131.1406,559.0313 C3130.0156,559.0313 3128.9375,558.5469 3128.7656,557.9375 C3128.6406,557.4688 3128.6406,557.4688 3128.5156,557.3594 C3128.3594,557.2031 3128.1406,557.1094 3127.9063,557.1094 C3127.625,557.1094 3127.375,557.2344 3127.2031,557.4531 C3127.0938,557.625 3127.0469,557.8125 3127.0469,558.2344 L3127.0469,559.3594 C3127.0469,560.125 3127.3281,560.4844 3127.9219,560.4844 C3128.1875,560.4844 3128.3125,560.4219 3128.5938,560.0781 C3129.4375,560.5156 3130.3281,560.7344 3131.25,560.7344 C3133.5781,560.7344 3135.1406,559.5469 3135.1406,557.7813 C3135.1406,556.8906 3134.8281,556.2031 3134.1406,555.6563 C3133.6094,555.2344 3132.9688,554.9844 3131.4844,554.7188 C3130.2188,554.4844 3130.125,554.4531 3129.7969,554.2813 C3129.4219,554.0938 3129.1563,553.7031 3129.1563,553.3438 C3129.1563,552.6094 3130.0156,552.0469 3131.0781,552.0469 C3132.1406,552.0469 3132.9531,552.5156 3133.1094,553.1875 C3133.2188,553.7344 3133.2188,553.7344 3133.3438,553.875 C3133.4844,554 3133.7188,554.1094 3133.9531,554.1094 C3134.2188,554.1094 3134.4688,553.9688 3134.6406,553.75 C3134.75,553.5781 3134.7813,553.4375 3134.7813,552.9688 L3134.7813,551.4688 Z " fill="#000000"/><text fill="#000000" font-family="sans-serif" font-size="14" lengthAdjust="spacing" textLength="92" x="3145" y="560.3467">serverConfig</text><line style="stroke:#181818;stroke-width:0.5;" x1="3117" x2="3239" y1="571.5" y2="571.5"/><ellipse cx="3127" cy="585.1484" fill="none" rx="3" ry="3" style="stroke:#038048;stroke-width:1.0;"/><text fill="#000000" font-family="sans-serif" font-size="14" lengthAdjust="spacing" textLength="37" x="3136" y="588.4951">Id int</text><ellipse cx="3127" cy="601.4453" fill="none" rx="3" ry="3" style="stroke:#038048;stroke-width:1.0;"/><text fill="#000000" font-family="sans-serif" font-size="14" lengthAdjust="spacing" textLength="77" x="3136" y="604.792">Port string</text><ellipse cx="3127" cy="617.7422" fill="none" rx="3" ry="3" style="stroke:#038048;stroke-width:1.0;"/><text fill="#000000" font-family="sans-serif" font-size="14" lengthAdjust="spacing" textLength="79" x="3136" y="621.0889">Host string</text><line style="stroke:#181818;stroke-width:0.5;" x1="3117" x2="3239" y1="628.3906" y2="628.3906"/></g><!--MD5=[e7a793c4df45a32b3b359088b0b8795b]
reverse link protocol.Protocol to protocol.SDRProtocol--><g id="link_protocol.Protocol_protocol.SDRProtocol"><path codeLine="140" d="M4058,280.47 C4058,349.534 4058,455.687 4058,523.207 " fill="none" id="protocol.Protocol-backto-protocol.SDRProtocol" style="stroke:#181818;stroke-width:1.0;"/><polygon fill="none" points="4051,280.311,4058,260.311,4065,280.311,4051,280.311" style="stroke:#181818;stroke-width:1.0;"/></g><!--MD5=[6112bfd9f536cd5901218ce04bef14a7]
reverse link server.debuggable to server.Server--><g id="link_server.debuggable_server.Server"><path codeLine="211" d="M2248.68,260.274 C2215.84,305.993 2164.61,377.322 2118.38,441.684 " fill="none" id="server.debuggable-backto-server.Server" style="stroke:#181818;stroke-width:1.0;"/><polygon fill="none" points="2243.17,255.946,2260.53,243.786,2254.55,264.113,2243.17,255.946" style="stroke:#181818;stroke-width:1.0;"/></g><!--MD5=[bdaf1ec26c573e603d38568c5dd6d580]
reverse link server.debuggable to server.databaseManager--><g id="link_server.debuggable_server.databaseManager"><path codeLine="212" d="M2317.36,260.165 C2360.55,320.064 2435.52,424.047 2489.3,498.652 " fill="none" id="server.debuggable-backto-server.databaseManager" style="stroke:#181818;stroke-width:1.0;"/><polygon fill="none" points="2311.57,264.103,2305.56,243.786,2322.93,255.915,2311.57,264.103" style="stroke:#181818;stroke-width:1.0;"/></g><!--MD5=[a5049aaa278f2e195b3774628a365294]
reverse link models.[]job to models.jobs--><g id="link_models.[]job_models.jobs"><path codeLine="214" d="M309.035,240.877 C309.219,282.787 315.962,361.105 360,406 C401.682,448.494 439.626,408.753 489,442 C532.403,471.226 566.272,522.763 584.938,555.871 " fill="none" id="models.[]job-backto-models.jobs" style="stroke:#181818;stroke-width:1.0;stroke-dasharray:7.0,7.0;"/><rect fill="#FFFFFF" height="10" style="stroke:#181818;stroke-width:1.5;" width="10" x="304.045" y="230.705"/></g><!--MD5=[95e8bc079dd3c47679b77d96fdb7d14b]
reverse link models.[]jsonEvent to models.jsonEvents--><g id="link_models.[]jsonEvent_models.jsonEvents"><path codeLine="215" d="M195.015,240.649 C207.659,278.905 232.243,349.071 260,406 C286.686,460.732 324.595,520.589 347.951,555.911 " fill="none" id="models.[]jsonEvent-backto-models.jsonEvents" style="stroke:#181818;stroke-width:1.0;stroke-dasharray:7.0,7.0;"/><rect fill="#FFFFFF" height="10" style="stroke:#181818;stroke-width:1.5;" width="10" x="188.385" y="230.693"/></g><!--MD5=[f9301ff404f1200c6c98d1bd1d584ed0]
reverse link models.[]user to models.users--><g id="link_models.[]user_models.users"><path codeLine="216" d="M63.2119,240.788 C75.8562,309.415 108.087,484.347 121.259,555.84 " fill="none" id="models.[]user-backto-models.users" style="stroke:#181818;stroke-width:1.0;stroke-dasharray:7.0,7.0;"/><rect fill="#FFFFFF" height="10" style="stroke:#181818;stroke-width:1.5;" width="10" x="57.2642" y="230.644"/></g><!--MD5=[f0e53c7ce235dc2f1b04b33127126e8f]
@startuml
namespace client {
    class Connection << (S,Aquamarine) >> {
        - conn net.Conn
        - serverIn *bufio.Reader
        - serverOut *bufio.Writer
        - protocol protocol.Protocol

        - sendDebugRequest() 
        - readFromServer() protocol.DataPacket
        - writeToServer(data protocol.DataPacket) 
        - integerReader(optionalMessage string) int

        + LoginClient(username string, password string) bool
        + CreateEvent(jobList []string) bool
        + PrintEvents() bool
        + VolunteerRegistration(eventId int, jobId int) bool
        + ListJobs(eventId int) bool
        + VolunteerRepartition(eventId int) 
        + CloseEvent(eventId int) 
        + ServerRequest(data protocol.DataPacket) (bool, protocol.DataPacket)
        + Close() 

    }
}


namespace models {
    class Database << (S,Aquamarine) >> {
        + Events <font color=blue>map</font>[uint]*event
        + Users <font color=blue>map</font>[string]*user

        + GetEventByName(name string) (*event, error)
        + GetEvent(id uint) (*event, error)
        + GetEventsAsStringArray() []string
        + CreateEvent(name string, organizer string) (*Database, error)
        + CreateUser(name string, password string, function string) (*Database, error)
        + GetUser(name string) (*user, error)
        + Login(name string, password string) (bool, error)
        + GetEventArray() []event
        + ToJson() string
        + EventAsJson() string

    }
    class event << (S,Aquamarine) >> {
        + ID uint
        + Name string
        + Organizer string
        + Jobs <font color=blue>map</font>[uint]*job
        + IsOpen bool

        - isRegisterToJob(name string, jobID uint) bool
        - getAllVolunteers() []string

        + CreateJob(name string, required uint) (*event, error)
        + GetJob(id uint) (*job, error)
        + GetJobByName(name string) (*job, error)
        + ToString() string
        + GetJobsAsStringArray() []string
        + JobsAsJson() string
        + AddVolunteer(jobId uint, name string) (*job, error)
        + RemoveVolunteer(name string) error
        + Close() 
        + ToJson() string

    }
    class job << (S,Aquamarine) >> {
        + ID uint
        + Name string
        + Required uint
        + Volunteers []string

        + GetVolunteer(name string) (string, error)
        + RemoveVolunteer(name string) (*job, error)
        + ToString() string
        + ToJson() string

    }
    class jobs << (S,Aquamarine) >> {
        + ToMap() <font color=blue>map</font>[uint]*job

    }
    class jsonDatabase << (S,Aquamarine) >> {
        + Events jsonEvents
        + Users users

    }
    class jsonEvent << (S,Aquamarine) >> {
        + ID uint
        + Name string
        + Organizer string
        + Jobs jobs
        + IsOpen bool

    }
    class jsonEvents << (S,Aquamarine) >> {
        - toMap() <font color=blue>map</font>[uint]*event

    }
    class models.jobs << (T, #FF7700) >>  {
    }
    class models.jsonEvents << (T, #FF7700) >>  {
    }
    class models.users << (T, #FF7700) >>  {
    }
    class user << (S,Aquamarine) >> {
        + Name string
        + Password string
        + Function string

    }
    class users << (S,Aquamarine) >> {
        + ToMap() <font color=blue>map</font>[string]*user

    }
}


namespace protocol {
    class DataPacket << (S,Aquamarine) >> {
        + Type string
        + Data []string

    }
    interface Protocol  {
        + ToSend(data DataPacket) (string, error)
        + Receive(message string) (DataPacket, error)
        + GetDelimiter() byte

    }
    class SDRProtocol << (S,Aquamarine) >> {
        + ToSend(data DataPacket) (string, error)
        + Receive(message string) (DataPacket, error)
        + GetDelimiter() byte
        + NewError(message string) DataPacket
        + NewSuccess(message string) DataPacket

    }
}

"protocol.Protocol" <|- - "protocol.SDRProtocol"

namespace server {
    class Server << (S,Aquamarine) >> {
        - host string
        - port string
        - dbm *databaseManager
        - messagingProtocol protocol.SDRProtocol
        - debugFlag bool

        + Id int

        - connectToServer(serverConfig serverConfig) 
        - handleConnectionFromServer(conn *net.Conn) 
        - connectToPrecedingServers(config networkConfig) 
        - startWaitingForServers() 
        - isDebug() bool
        - start() 
        - closeRequest(client *clientConnection) 
        - handleRequest(client *clientConnection) 

    }
    class clientConnection << (S,Aquamarine) >> {
        - bufin *bufio.Reader
        - bufout *bufio.Writer
        - conn *net.Conn
        - connectedUser string
        - server *Server
        - isDebug bool

        - read() (protocol.DataPacket, error)
        - write(data protocol.DataPacket) error
        - sendError(message string) error
        - sendSuccess(message string) error
        - close() 

    }
    class databaseManager << (S,Aquamarine) >> {
        - db models.Database
        - requestChannel <font color=blue>chan</font> databaseRequest
        - debugFlag bool

        - isDebug() bool
        - start() 
        - handleRequest(request databaseRequest) 
        - logInUser(client *clientConnection, username string, password string) (bool, error)
        - checkIfOrganizer(client *clientConnection, eventId int) bool

    }
    class databaseRequest << (S,Aquamarine) >> {
        - sender *clientConnection
        - payload protocol.DataPacket

    }
    interface debuggable  {
        - isDebug() bool

    }
    class networkConfig << (S,Aquamarine) >> {
        + NbServers int
        + Servers []serverConfig

    }
    class serverConfig << (S,Aquamarine) >> {
        + Id int
        + Port string
        + Host string

    }
}

"server.debuggable" <|- - "server.Server"
"server.debuggable" <|- - "server.databaseManager"

"models.[]job" #.. "models.jobs"
"models.[]jsonEvent" #.. "models.jsonEvents"
"models.[]user" #.. "models.users"
@enduml

PlantUML version 1.2022.14beta1(Unknown compile time)
(GPL source distribution)
Java Runtime: Java(TM) SE Runtime Environment
JVM: Java HotSpot(TM) 64-Bit Server VM
Default Encoding: UTF-8
Language: en
Country: US
--></g></svg>